
<svg width="1274.000000pt" height="1280.000000pt" viewBox="0 0 1274.000000 1280.000000">

<g transform="translate(0.000000,1280.000000) scale(0.100000,-0.100000)"
fill="#000000" stroke="none">
<path d="M6127 12794 c-4 -4 -7 -243 -7 -531 l0 -523 -2497 -2 -2498 -3 -3
-2578 -2 -2577 -158 5 c-279 10 -824 25 -887 25 l-62 0 -7 -211 c-4 -116 -5
-213 -3 -215 3 -3 148 -9 323 -14 176 -5 426 -12 557 -16 l237 -7 0 -2496 c0
-1929 3 -2500 12 -2509 9 -9 578 -12 2500 -12 l2488 0 2 -563 3 -562 215 0
215 0 5 565 5 565 2580 0 2580 0 3 2481 2 2481 173 6 c94 4 322 7 505 7 l332
0 0 215 c0 165 -3 215 -12 215 -7 0 -235 0 -505 0 l-493 0 0 2600 0 2600
-2585 0 -2585 0 -2 528 -3 527 -211 3 c-115 1 -213 -1 -217 -4z m403 -544 l0
-530 2588 -2 2587 -3 3 -2602 2 -2603 500 7 500 6 2 -131 c1 -73 2 -160 3
-194 l0 -63 -500 -5 -500 -5 -3 -2482 -2 -2483 -2588 -2 -2587 -3 -3 -567 -2
-568 -190 0 -190 0 -2 568 -3 567 -2497 3 -2498 2 0 2504 0 2504 -162 6 c-165
7 -863 26 -928 26 l-35 0 3 187 c2 104 6 191 10 195 4 4 133 3 287 -2 154 -5
403 -12 552 -16 l273 -7 0 2582 0 2581 2500 0 2500 0 0 530 0 530 190 0 190 0
0 -530z"/>
<path d="M5393 11004 c-188 -97 -263 -140 -263 -152 1 -20 84 -289 92 -298 3
-3 85 35 180 85 96 50 178 91 181 91 4 0 8 -393 9 -872 l3 -873 210 0 210 0 0
1075 0 1075 -180 2 -180 3 -262 -136z m597 -944 l0 -1050 -190 0 -190 0 0 874
c0 481 -3 877 -7 879 -5 3 -88 -37 -187 -89 -98 -52 -180 -93 -181 -92 -10 11
-83 274 -77 276 4 1 115 58 247 126 l240 124 173 1 172 1 0 -1050z"/>
<path d="M6810 11130 c-155 -16 -297 -62 -422 -137 -43 -26 -78 -50 -78 -54 0
-13 111 -294 119 -302 5 -5 37 10 71 33 185 127 419 146 539 43 86 -73 123
-231 87 -373 -47 -190 -186 -386 -526 -745 -73 -77 -175 -186 -227 -241 l-94
-102 3 -133 3 -134 663 -3 662 -2 0 185 0 185 -377 0 -376 0 174 178 c407 414
539 652 539 972 0 137 -15 203 -70 316 -112 228 -370 346 -690 314z m346 -54
c262 -85 405 -308 391 -611 -7 -138 -26 -212 -88 -343 -87 -184 -205 -337
-472 -609 -93 -94 -166 -176 -162 -182 4 -8 127 -11 386 -11 l379 0 0 -155 0
-155 -645 0 -645 0 0 116 0 115 246 262 c136 144 283 305 326 357 110 130 211
286 250 384 30 76 32 89 33 206 0 110 -3 131 -24 177 -26 59 -94 127 -147 149
-137 57 -323 28 -485 -77 -53 -34 -60 -37 -66 -21 -4 9 -26 68 -50 131 -24 63
-42 120 -39 127 8 22 226 122 311 143 116 28 126 29 280 26 119 -2 152 -6 221
-29z"/>
<path d="M4057 10042 c-78 -51 -116 -82 -114 -92 4 -15 790 -1225 811 -1247 9
-10 40 6 136 70 69 45 125 85 125 89 0 16 -818 1258 -829 1257 -6 0 -64 -35
-129 -77z m534 -567 l397 -609 -106 -72 c-59 -39 -110 -70 -113 -68 -8 5 -787
1197 -794 1215 -5 14 191 151 209 146 5 -2 188 -277 407 -612z"/>
<path d="M8419 9314 c-266 -311 -485 -570 -487 -574 -3 -9 215 -200 228 -200
9 0 980 1137 979 1147 0 10 -202 181 -221 188 -10 4 -168 -173 -499 -561z
m593 456 c51 -44 93 -83 93 -88 0 -9 -937 -1110 -946 -1111 -8 -1 -194 159
-194 167 0 10 938 1111 947 1112 3 0 48 -36 100 -80z"/>
<path d="M9180 8610 c-316 -253 -579 -466 -584 -473 -6 -10 18 -47 85 -131 51
-64 96 -115 99 -114 4 2 268 212 588 468 404 323 580 470 578 481 -5 22 -168
228 -181 228 -5 1 -269 -206 -585 -459z m659 339 c41 -51 74 -98 75 -105 0 -7
-254 -218 -566 -468 l-568 -455 -80 99 c-44 54 -80 102 -79 107 0 8 1130 913
1140 913 3 0 38 -41 78 -91z"/>
<path d="M2850 8877 c-47 -61 -86 -116 -87 -122 -2 -8 1162 -912 1188 -923 9
-4 190 230 186 241 -4 12 -1181 917 -1192 916 -5 0 -48 -50 -95 -112z m670
-352 c311 -240 570 -441 577 -448 10 -9 -2 -30 -53 -97 -36 -47 -71 -93 -79
-103 -12 -17 -58 16 -586 423 -316 243 -578 446 -582 450 -8 7 140 210 153
210 3 0 259 -196 570 -435z"/>
<path d="M7040 7823 l-452 -846 86 -86 c53 -53 89 -82 94 -76 13 15 902 1682
902 1692 0 13 -154 163 -166 163 -7 0 -215 -381 -464 -847z m598 676 c-2 -9
-201 -386 -442 -838 l-439 -823 -70 70 -70 71 443 830 442 830 70 -62 c41 -36
68 -68 66 -78z"/>
<path d="M9570 7669 c-197 -17 -460 -110 -446 -157 3 -9 21 -75 42 -147 20
-71 40 -134 45 -139 4 -4 27 3 51 17 23 14 77 38 118 53 65 24 90 28 190 28
99 1 120 -2 155 -21 84 -45 125 -114 125 -210 -1 -176 -167 -283 -441 -283
l-59 0 0 -150 0 -150 79 0 c341 0 518 -142 479 -385 -16 -105 -70 -174 -173
-222 -56 -26 -68 -28 -190 -27 -115 0 -140 3 -215 28 -47 16 -106 39 -132 52
-26 13 -49 20 -52 16 -3 -5 -25 -78 -50 -162 -52 -178 -57 -161 67 -210 255
-100 592 -100 815 1 35 16 93 49 128 74 275 196 329 603 111 841 -61 67 -147
126 -219 150 l-51 17 33 13 c59 25 159 104 200 157 119 158 139 351 54 526
-104 213 -346 319 -664 290z m272 -34 c149 -31 292 -125 355 -233 40 -68 63
-155 63 -241 0 -187 -97 -340 -272 -432 -44 -22 -78 -45 -76 -51 2 -6 33 -21
69 -33 302 -101 434 -444 288 -745 -45 -93 -169 -213 -269 -262 -136 -67 -219
-83 -425 -83 -153 1 -193 4 -270 23 -85 22 -225 78 -225 91 0 3 18 67 40 141
22 74 40 135 40 137 0 1 30 -12 67 -28 162 -74 357 -94 486 -50 86 29 164 98
198 173 32 73 33 202 2 269 -65 143 -216 219 -435 219 l-98 0 0 130 0 130 78
0 c247 0 415 122 415 302 0 80 -35 162 -86 201 -108 82 -309 79 -491 -8 -39
-19 -71 -33 -72 -32 -3 4 -74 251 -74 259 0 13 110 64 188 88 164 50 364 64
504 35z"/>
<path d="M2815 7531 c-213 -46 -371 -173 -474 -379 -100 -200 -100 -476 0
-675 43 -84 154 -194 239 -235 195 -96 433 -75 593 50 20 16 37 28 37 25 0
-18 -48 -146 -78 -207 -27 -55 -58 -96 -117 -156 -128 -129 -243 -175 -477
-190 l-108 -7 0 -163 0 -164 114 0 c495 0 858 260 1014 726 40 120 60 228 72
390 25 354 -53 637 -225 810 -77 78 -134 115 -234 152 -54 19 -89 25 -191 28
-69 2 -143 -1 -165 -5z m335 -41 c225 -74 375 -262 437 -550 14 -67 18 -128
18 -290 -1 -225 -11 -296 -66 -475 -141 -456 -512 -725 -1001 -725 l-88 0 0
143 0 144 113 6 c204 12 351 71 466 188 79 78 123 150 166 267 38 101 51 162
35 162 -6 0 -34 -18 -62 -41 -105 -83 -191 -111 -338 -111 -266 1 -470 175
-526 448 -22 107 -15 281 16 379 71 226 241 400 451 459 80 22 104 25 214 21
66 -3 122 -11 165 -25z"/>
<path d="M2845 7236 c-83 -39 -135 -114 -167 -239 -26 -104 -21 -250 12 -345
30 -86 102 -164 172 -188 100 -33 220 0 300 83 56 57 68 96 68 215 0 202 -41
340 -124 423 -78 78 -167 95 -261 51z m194 -26 c74 -37 131 -140 156 -284 17
-101 20 -224 5 -277 -26 -92 -147 -174 -255 -174 -198 2 -306 233 -243 520 42
195 191 290 337 215z"/>
<path d="M6370 6718 c-147 -75 -146 -293 1 -368 48 -25 138 -26 185 -4 50 24
101 88 113 143 37 172 -142 308 -299 229z m167 -13 c72 -30 113 -93 113 -170
0 -77 -41 -140 -113 -170 -180 -75 -341 155 -205 294 59 60 132 76 205 46z"/>
<path d="M6347 6063 c-5 -60 -22 -1521 -22 -1862 l0 -64 103 -35 c57 -19 105
-32 108 -29 5 5 23 1313 24 1734 l0 271 -93 31 c-50 17 -97 31 -103 31 -7 0
-14 -31 -17 -77z m191 -8 c4 -4 -19 -1949 -23 -1953 -2 -2 -41 9 -86 24 l-82
29 7 665 c3 366 9 807 12 981 l7 317 81 -30 c44 -16 82 -31 84 -33z"/>
<path d="M8767 5128 c-18 -24 -60 -78 -92 -121 -57 -77 -58 -79 -39 -96 29
-28 1179 -891 1187 -891 13 0 189 242 181 250 -5 4 -272 204 -594 445 -322
241 -590 442 -597 447 -7 6 -22 -5 -46 -34z m623 -428 c311 -232 570 -428 577
-434 9 -8 -6 -34 -62 -110 -41 -54 -77 -101 -80 -104 -3 -3 -264 190 -582 429
-317 239 -581 437 -586 441 -6 3 24 52 68 112 49 66 83 102 89 97 6 -4 265
-198 576 -431z"/>
<path d="M3500 4594 c-311 -267 -566 -489 -568 -494 -4 -12 188 -232 199 -228
17 6 1139 970 1139 979 0 11 -189 229 -198 228 -4 0 -261 -218 -572 -485z
m660 357 c44 -52 80 -97 79 -100 -1 -10 -1099 -946 -1109 -946 -5 0 -45 43
-90 95 -71 84 -79 96 -65 109 44 45 1091 939 1097 938 4 -1 43 -44 88 -96z"/>
<path d="M7850 4269 c-58 -44 -111 -86 -118 -93 -11 -11 65 -117 443 -615 319
-420 460 -599 469 -594 49 30 225 170 225 181 1 13 -898 1202 -908 1201 -3 0
-53 -36 -111 -80z m564 -547 c235 -310 426 -567 424 -572 -2 -5 -47 -43 -102
-84 l-98 -76 -17 23 c-10 12 -210 276 -445 586 -393 517 -426 564 -409 576 10
7 56 42 103 78 79 60 86 64 101 48 9 -9 209 -269 443 -579z"/>
<path d="M4422 3670 c-238 -329 -435 -606 -438 -613 -3 -10 35 -43 116 -101
66 -47 122 -86 125 -86 3 0 863 1190 878 1216 7 11 -220 184 -240 184 -5 0
-203 -270 -441 -600z m553 497 c55 -41 100 -75 100 -78 0 -2 -188 -265 -418
-584 -230 -319 -422 -587 -427 -594 -6 -11 -32 3 -115 63 -58 43 -105 81 -103
85 8 20 851 1181 856 1181 4 0 52 -33 107 -73z"/>
<path d="M6516 3935 c-127 -18 -258 -55 -362 -104 -395 -186 -624 -601 -624
-1134 0 -225 28 -363 107 -521 83 -169 210 -281 386 -344 64 -23 88 -25 222
-26 131 -1 159 2 220 22 232 77 403 279 457 539 23 114 21 295 -6 398 -46 174
-158 319 -297 387 -198 97 -430 75 -602 -56 -28 -22 -47 -30 -47 -22 0 29 43
135 82 201 120 201 323 314 600 333 l93 7 0 165 0 165 -65 2 c-36 1 -110 -5
-164 -12z m204 -149 l0 -143 -31 -7 c-17 -3 -49 -6 -70 -6 -58 0 -173 -27
-257 -61 -170 -68 -307 -205 -381 -383 -31 -75 -51 -176 -34 -176 5 0 32 21
59 46 153 142 403 173 604 77 83 -40 189 -151 233 -243 54 -113 71 -193 71
-345 0 -153 -20 -240 -86 -374 -83 -169 -251 -298 -438 -337 -89 -19 -232 -14
-325 12 -278 75 -457 313 -505 672 -16 113 -8 341 15 462 77 400 285 691 597
834 145 67 299 101 526 115 22 1 22 0 22 -143z"/>
<path d="M6133 2909 c-64 -25 -132 -89 -170 -160 -26 -51 -28 -62 -28 -174 0
-246 88 -421 237 -471 58 -19 138 -15 186 10 197 102 245 534 80 721 -80 90
-192 117 -305 74z m175 -14 c132 -39 203 -173 203 -380 -1 -160 -43 -281 -121
-348 -107 -92 -260 -62 -346 68 -43 65 -68 139 -84 249 -23 162 5 262 97 346
81 74 155 93 251 65z"/>
</g>
</svg>
