<svg width="508" height="495" viewBox="0 0 508 495" fill="none" xmlns="http://www.w3.org/2000/svg">
<g clip-path="url(#clip0_27_1636)">
<path d="M410.983 11.2324H280.343V131.035H410.983V11.2324Z" fill="#C2B5FF"/>
<path d="M406.491 145.691H279.882V233.631H406.491V145.691Z" fill="#C2B5FF"/>
<path d="M382.695 248.606H280.343V370.822H382.695V248.606Z" fill="#C2B5FF"/>
<path d="M505.553 392.929H332.196V493.725H505.553V392.929Z" fill="#C2B5FF"/>
<path d="M505.553 331.74H397.469V381.844H505.553V331.74Z" fill="#C2B5FF"/>
<path d="M461.693 317.751C464.883 317.751 467.469 315.164 467.469 311.973C467.469 308.782 464.883 306.195 461.693 306.195C458.503 306.195 455.917 308.782 455.917 311.973C455.917 315.164 458.503 317.751 461.693 317.751Z" fill="#191919"/>
<path d="M481.953 317.751C485.144 317.751 487.73 315.164 487.73 311.973C487.73 308.782 485.144 306.195 481.953 306.195C478.763 306.195 476.177 308.782 476.177 311.973C476.177 315.164 478.763 317.751 481.953 317.751Z" fill="#191919"/>
<path d="M424.094 198.561C427.284 198.561 429.87 195.974 429.87 192.783C429.87 189.592 427.284 187.005 424.094 187.005C420.904 187.005 418.318 189.592 418.318 192.783C418.318 195.974 420.904 198.561 424.094 198.561Z" fill="#191919"/>
<path d="M447.14 197.09C450.33 197.09 452.916 194.503 452.916 191.312C452.916 188.121 450.33 185.534 447.14 185.534C443.95 185.534 441.364 188.121 441.364 191.312C441.364 194.503 443.95 197.09 447.14 197.09Z" fill="#191919"/>
<path d="M484.895 170.113C488.086 170.113 490.672 167.526 490.672 164.335C490.672 161.144 488.086 158.557 484.895 158.557C481.705 158.557 479.119 161.144 479.119 164.335C479.119 167.526 481.705 170.113 484.895 170.113Z" fill="#191919"/>
<path d="M502.214 317.751C505.404 317.751 507.99 315.164 507.99 311.973C507.99 308.782 505.404 306.195 502.214 306.195C499.024 306.195 496.438 308.782 496.438 311.973C496.438 315.164 499.024 317.751 502.214 317.751Z" fill="#191919"/>
<path d="M264.496 268.437H131.375V395.037H264.496V268.437Z" fill="#C2B5FF"/>
<path d="M322.37 404.539H143.697V493.725H322.37V404.539Z" fill="#C2B5FF"/>
<path d="M266.864 11.2324H146.159V95.5186H266.864V11.2324Z" fill="#C2B5FF"/>
<path d="M205.857 108.32C193.412 108.32 181.477 113.265 172.677 122.067C163.877 130.869 158.933 142.807 158.932 155.256V236.908H252.777V155.256C252.777 142.808 247.833 130.869 239.034 122.067C230.235 113.265 218.301 108.32 205.857 108.32Z" fill="#C2B5FF"/>
<path d="M195.815 176.891C196.834 173.198 202.39 175.886 201.762 179.054C201.135 182.223 194.398 182.056 195.815 176.891Z" fill="white"/>
<path d="M209.387 207.16L212.354 236.913H171.729L177.535 195.349L209.387 207.16Z" fill="#003E14"/>
<path d="M192.044 178.147C196.393 177.882 208.093 180.982 212.354 191.076C215.477 198.478 223.69 212.236 216.168 220.015C209.917 226.49 201.537 223.939 201.537 223.939L195.363 213.707L202.856 205.619L201.037 211.922L193.255 205.609L185.974 180.992L192.044 178.147Z" fill="#003E14"/>
<path d="M188.965 178.961C188.965 178.961 178.722 179.452 173.048 187.79C168.444 194.534 164.541 203.756 165.267 210.22C165.929 216.141 171.641 223.508 179.908 222.586C188.175 221.663 203.979 221.026 203.979 221.026L188.965 178.147V178.961Z" fill="#003E14"/>
<path d="M136.514 11.2324H23.2222V124.566H136.514V11.2324Z" fill="#C2B5FF"/>
<path d="M9.04665 154.069L140.902 157.291L141.162 146.167L9.31143 142.944L9.04665 154.069Z" fill="#C2B5FF"/>
<path d="M129.806 167.047H10.3362V178.176H129.806V167.047Z" fill="#C2B5FF"/>
<path d="M5.61922 204.879L137.431 200.239L137.053 189.114L5.24657 193.754L5.61922 204.879Z" fill="#C2B5FF"/>
<path d="M92.825 214.458H0V225.587H92.825V214.458Z" fill="#C2B5FF"/>
<path d="M501.993 187.03H467.773V198.184H501.993V187.03Z" fill="#C2B5FF"/>
<path d="M454.921 21.7339H420.701V32.8877H454.921V21.7339Z" fill="black"/>
<path d="M412.552 224.577L508 220.221L507.696 209.097L412.248 213.457L412.552 224.577Z" fill="#C2B5FF"/>
<path d="M472.892 234.44H412.375V245.57H472.892V234.44Z" fill="#C2B5FF"/>
<path d="M507.99 259.191H399.862V270.32H507.99V259.191Z" fill="#C2B5FF"/>
<path d="M417.786 281.304L417.203 292L494.052 296.191L494.635 285.494L417.786 281.304Z" fill="#C2B5FF"/>
<path d="M507.995 234.043H486.71V245.57H507.995V234.043Z" fill="#191919"/>
<path d="M450.131 55.5039H421.201V67.0305H450.131V55.5039Z" fill="#C2B5FF"/>
<path d="M452.097 91.3101H430.812V102.837H452.097V91.3101Z" fill="black"/>
<path d="M457.981 127.606H436.696V139.133H457.981V127.606Z" fill="#C2B5FF"/>
<path d="M461.409 158.507H416.788V170.034H461.409V158.507Z" fill="#C2B5FF"/>
<path d="M141.049 237.477H9.15942V248.606H141.049V237.477Z" fill="#C2B5FF"/>
<path d="M16.8282 446.902L128.982 446.804L128.992 435.68L16.838 435.773L16.8282 446.902Z" fill="#C2B5FF"/>
<path d="M118.366 456.705L25.6318 460.804L26.1229 471.923L118.857 467.824L118.366 456.705Z" fill="#C2B5FF"/>
<path d="M462.208 408.192L437.657 400.183L425.447 381.093L417.229 391.967L436.102 413.21L458.471 414.015L462.208 408.192Z" fill="#003E14"/>
<path d="M316.824 312.125C316.824 312.125 336.114 310.859 346.327 315.602C354.707 319.497 361.327 329.954 361.327 329.954L391.928 327.727L395.037 344.615C395.037 344.615 372.972 351.114 357.659 348.774C346.666 347.092 338.624 340.794 338.624 340.794L327.709 371.102H296.652L299.731 333.716L316.824 312.125Z" fill="white"/>
<path d="M391.389 329.611C391.389 329.611 396.229 327.899 397.675 328.968C399.121 330.037 395.223 331.847 395.223 331.847C395.223 331.847 401.759 331.17 401.97 333.682C402.181 336.193 392.723 338.66 392.723 338.66L391.389 329.611Z" fill="#FFA7C8"/>
<path d="M365.985 303.005L305.648 385.381L387.997 445.737L448.333 363.361L365.985 303.005Z" fill="#93FF43"/>
<path d="M409.817 335.131L404.418 331.174L344.081 413.549L349.48 417.506L409.817 335.131Z" fill="#191919"/>
<path d="M416.178 407.174L420.134 401.773L337.785 341.417L333.829 346.818L416.178 407.174Z" fill="#191919"/>
<path d="M441.898 317.785C431.979 316.666 421.977 318.996 413.572 324.382C416.174 314.741 415.377 304.497 411.316 295.375C405.506 282.205 395.287 279.797 388.31 281.739C380.239 283.985 375.164 291.755 376.243 300.216C377.311 308.603 384.966 316.691 393.066 325.231C394.047 326.281 395.011 327.309 395.959 328.316C386.035 326.614 376.409 328.586 368.77 339.024L374.193 343.001C381.759 332.667 391.355 332.824 403.937 337.523C412.208 348.103 415.244 357.206 407.678 367.541L413.106 371.514C420.75 361.076 419.725 351.305 415.111 342.354C416.357 342.943 417.628 343.552 418.926 344.183C428.188 348.681 437 352.958 444.629 352.958C445.711 352.962 446.791 352.869 447.856 352.679C456.245 351.153 462.124 343.973 461.825 335.6C461.57 328.37 456.201 319.355 441.898 317.785ZM382.916 299.362C382.537 296.946 383.061 294.474 384.388 292.42C385.714 290.365 387.751 288.871 390.109 288.223C390.965 287.987 391.849 287.868 392.737 287.87C396.93 287.87 401.818 290.519 405.157 298.087C407.263 302.857 408.344 308.015 408.332 313.228C408.321 318.442 407.216 323.595 405.089 328.355C402.735 325.672 400.293 323.092 397.95 320.62C390.624 312.88 383.705 305.577 382.916 299.362ZM446.659 346.072C440.506 347.205 431.459 342.795 421.868 338.141C418.808 336.669 415.621 335.109 412.36 333.672C416.519 330.018 426.678 322.881 441.168 324.476C451.19 325.574 454.941 331.073 455.108 335.85C455.203 338.296 454.393 340.691 452.833 342.576C451.274 344.462 449.074 345.707 446.654 346.072H446.659Z" fill="#191919"/>
<path d="M328.239 372.71C328.239 372.71 332.304 375.84 332.196 377.615C332.088 379.391 328.43 377.125 328.43 377.125C328.43 377.125 332.554 382.246 330.563 383.786C328.572 385.326 321.355 378.739 321.355 378.739L328.239 372.71Z" fill="#FBDDC9"/>
<path d="M412.414 382.972C412.414 382.972 410.453 378.219 408.708 377.856C406.962 377.493 408.217 381.618 408.217 381.618C408.217 381.618 404.368 376.291 402.333 377.812C400.298 379.332 404.785 388.024 404.785 388.024L412.414 382.972Z" fill="#FBDDC9"/>
<path d="M327.778 312.301C315.407 312.301 305.747 310.138 298.422 320.797C291.096 331.455 288.1 350.486 299.089 360.811C310.077 371.136 319.511 381.113 319.511 381.113L330.725 370.861L310.077 344.801L327.778 312.301Z" fill="white"/>
<path d="M322.781 308.181L321.615 311.953C321.615 311.953 324.037 316.367 327.008 315.877C329.98 315.386 331.127 310.972 331.127 310.972L322.781 308.181Z" fill="#FBDDC9"/>
<path d="M322.639 305.484C322.433 309.898 325.346 314.283 329.793 314.803C334.241 315.323 334.932 311.369 335.138 306.955C335.344 302.541 333.721 298.71 329.274 298.219C324.826 297.729 322.86 301.059 322.639 305.484Z" fill="#FBDDC9"/>
<path d="M323.973 304.753C323.973 304.753 330.612 301.839 331.637 294.452C331.637 294.452 319.182 290.19 317.525 290.067C315.868 289.945 323.973 304.753 323.973 304.753Z" fill="#5FAE2D"/>
<path d="M330.195 294.644C330.414 294.37 330.548 294.038 330.582 293.689C330.616 293.34 330.549 292.989 330.387 292.677C330.226 292.366 329.978 292.108 329.673 291.935C329.369 291.762 329.02 291.68 328.67 291.701C327.664 291.737 326.681 292.013 325.802 292.505C322.772 294.232 320.158 300.971 321.428 303.139C322.698 305.307 325.091 304.12 326.253 300.844C326.92 298.99 328.759 296.459 330.195 294.644Z" fill="white"/>
<path d="M325.228 296.978C326.508 294.629 330.656 291.539 333.711 292.157C336.766 292.775 332.936 297.013 332.936 297.013C332.936 297.013 337.349 296.522 338.556 298.347C339.762 300.171 336.638 302.884 329.955 302.408C324.704 302.035 323.345 301.834 323.345 301.834C323.345 301.834 323.581 300.009 325.228 296.978Z" fill="#191919"/>
<path d="M329.141 300.598C329.141 300.598 327.832 308.907 322.767 308.181C322.267 303.967 323.313 299.715 325.709 296.213L329.141 300.598Z" fill="#191919"/>
<path d="M470.23 411.857C468.268 415.845 465.032 418.273 461.051 416.271C457.069 414.27 457.054 410.263 459.035 406.28C461.016 402.297 464.228 399.864 468.214 401.841C472.201 403.818 472.191 407.874 470.23 411.857Z" fill="#FBDDC9"/>
<path d="M471.5 408.06C471.5 408.06 473.436 404.082 470.421 401.684C467.405 399.285 461.884 395.97 460.315 397.809C458.746 399.648 458.408 402.694 471.5 408.06Z" fill="#191919"/>
<path d="M465.057 411.852C455.289 408.673 441.633 405.255 434.102 404.18L414.793 380.087L397.391 390.824C397.391 390.824 409.242 416.33 435.215 427.498C461.188 438.667 480.527 438.446 480.527 438.446L478.026 426.37C477.336 423.021 475.773 419.914 473.495 417.364C471.218 414.815 468.306 412.913 465.057 411.852Z" fill="#003E14"/>
<path d="M468.195 401.861C468.195 401.861 455.588 416.32 466.964 422.108C478.34 427.896 484.415 422.991 481.355 417.659C478.296 412.328 470.421 401.713 470.421 401.713L468.195 401.861Z" fill="#191919"/>
<path d="M466.243 398.913C466.243 398.913 468.003 405.951 475.099 408.193C475.099 408.193 481.38 396.617 481.777 395.003C482.174 393.39 466.243 398.913 466.243 398.913Z" fill="#5FAE2D"/>
<path d="M469.009 397.981C469.009 397.981 471.46 403.778 476.334 405.892C476.393 405.954 476.447 406.019 476.496 406.088C477.536 407.56 475.898 409.439 474.265 408.703C471.593 407.506 466.567 404.588 465.929 399.383C465.903 399.134 465.934 398.882 466.019 398.646C466.104 398.41 466.241 398.196 466.42 398.02C466.964 397.446 467.935 396.857 469.009 397.981Z" fill="white"/>
<path d="M429.826 421.117C429.826 421.117 419.147 456.379 419.147 493.71H490.368L480.527 438.446L466.238 430.132L429.826 421.117Z" fill="#003E14"/>
<path d="M135.842 395.038H234.973L185.405 219.299L135.842 395.038Z" fill="#93FF43"/>
<path d="M175.667 405.637L175.225 403.44C199.487 398.564 201.983 377.63 202.008 377.444L202.101 376.536L203.013 376.448C222.062 374.55 223.607 353.856 223.631 353.645L225.867 353.792C225.867 354.013 224.205 375.972 204.091 378.582C203.292 382.829 198.585 401.036 175.667 405.637Z" fill="#191919"/>
<path d="M192.701 304.949C190.642 304.957 188.601 304.574 186.685 303.821C174.706 299.127 170.793 281.543 170.636 280.817L172.828 280.326C172.862 280.498 176.647 297.464 187.489 301.717C193.044 303.899 199.61 302.379 207.004 297.209L208.289 299.048C202.684 302.982 197.457 304.949 192.701 304.949Z" fill="#191919"/>
<path d="M160.952 355.931C157.241 355.882 153.575 355.104 150.165 353.64L151.018 351.56C172.759 360.492 182.497 338.631 182.889 337.699L183.12 337.164L183.694 337.042C184.709 336.831 208.553 331.499 205.538 301.668L207.769 301.442C210.711 330.724 188.553 338.057 184.723 339.102C183.311 341.981 175.691 355.931 160.952 355.931Z" fill="#191919"/>
<path d="M202.988 383.835C208.234 383.835 212.486 379.581 212.486 374.334C212.486 369.087 208.234 364.833 202.988 364.833C197.743 364.833 193.49 369.087 193.49 374.334C193.49 379.581 197.743 383.835 202.988 383.835Z" fill="#FFEEB6"/>
<path d="M171.729 290.082C176.975 290.082 181.227 285.829 181.227 280.581C181.227 275.334 176.975 271.081 171.729 271.081C166.484 271.081 162.232 275.334 162.232 280.581C162.232 285.829 166.484 290.082 171.729 290.082Z" fill="#FFEEB6"/>
<path d="M190.654 344.861C194.363 341.151 194.363 335.135 190.654 331.425C186.945 327.715 180.932 327.715 177.222 331.425C173.513 335.135 173.513 341.151 177.222 344.861C180.932 348.571 186.945 348.571 190.654 344.861Z" fill="#FFEEB6"/>
<path d="M215.916 303.721C217.12 298.614 213.959 293.497 208.854 292.292C203.748 291.087 198.633 294.249 197.428 299.356C196.223 304.463 199.385 309.58 204.49 310.785C209.595 311.991 214.711 308.828 215.916 303.721Z" fill="#5FAE2D"/>
<path d="M187.391 201.695L190.083 207.581C190.244 207.934 190.497 208.237 190.815 208.46C191.134 208.682 191.505 208.816 191.892 208.847L198.457 209.376C198.892 209.41 199.307 209.575 199.648 209.847C199.988 210.12 200.239 210.489 200.368 210.906C200.496 211.324 200.496 211.77 200.368 212.187C200.24 212.604 199.989 212.973 199.649 213.246L194.917 217.062C194.593 217.322 194.351 217.67 194.219 218.064C194.086 218.458 194.07 218.881 194.172 219.284L195.643 225.136C195.746 225.548 195.726 225.982 195.586 226.384C195.445 226.785 195.191 227.137 194.853 227.395C194.515 227.653 194.109 227.807 193.684 227.837C193.26 227.867 192.836 227.772 192.466 227.564L186.488 224.228C186.164 224.048 185.798 223.953 185.427 223.953C185.055 223.953 184.69 224.048 184.365 224.228L178.383 227.564C178.013 227.77 177.589 227.864 177.166 227.833C176.743 227.803 176.338 227.649 176.001 227.391C175.664 227.133 175.409 226.782 175.269 226.381C175.129 225.981 175.108 225.548 175.211 225.136L176.682 219.309C176.782 218.905 176.765 218.482 176.632 218.088C176.499 217.694 176.256 217.347 175.932 217.087L171.205 213.271C170.864 212.998 170.614 212.629 170.486 212.211C170.358 211.794 170.358 211.348 170.486 210.931C170.615 210.514 170.865 210.145 171.206 209.872C171.547 209.599 171.961 209.435 172.396 209.401L178.962 208.871C179.349 208.84 179.72 208.707 180.038 208.484C180.356 208.262 180.609 207.958 180.771 207.606L183.463 201.72C183.639 201.35 183.916 201.037 184.262 200.817C184.608 200.597 185.009 200.479 185.419 200.476C185.829 200.474 186.231 200.587 186.58 200.802C186.929 201.018 187.21 201.327 187.391 201.695Z" fill="#FFEEB6"/>
<path d="M196.908 215.468C196.908 215.468 190.74 216.699 190.396 218.465C190.053 220.231 194.162 218.926 194.162 218.926C194.162 218.926 190.239 222.433 191.779 224.43C193.319 226.426 200.605 222.281 200.605 222.281L196.908 215.468Z" fill="#FBDDC9"/>
<path d="M175.446 245.482H195.363L185.405 219.299L175.446 245.482Z" fill="#FFEEB6"/>
<path d="M121.279 335.458H23.2222V421.117H121.279V335.458Z" fill="#C2B5FF"/>
<path d="M43.9437 417.139C41.0311 417.139 37.9567 416.62 35.608 414.932C35.3306 414.729 35.0653 414.509 34.8137 414.275C31.6459 415.631 28.1586 416.059 24.7569 415.511C21.0353 414.864 18.2306 412.956 17.0538 410.282L19.1034 409.375C19.9762 411.337 22.1729 412.808 25.1394 413.299C27.891 413.72 30.7044 413.431 33.3132 412.46C32.2976 410.704 31.7758 408.706 31.803 406.677C31.6902 400.031 34.9608 398.339 36.3729 397.951C37.6724 397.62 39.0442 397.72 40.2821 398.236C41.52 398.751 42.5571 399.655 43.2376 400.811C44.8802 403.523 44.2183 406.859 41.4871 409.733C40.1908 411.086 38.7042 412.243 37.0741 413.166C42.2079 416.727 52.2352 413.657 52.3333 413.608L53.0099 415.746C50.0659 416.624 47.0153 417.093 43.9437 417.139ZM37.8635 399.972C37.5666 399.971 37.271 400.012 36.9858 400.095C35.0245 400.654 33.9752 403.038 34.0438 406.623C34.0831 408.649 34.5342 410.273 35.3923 411.528C37.049 410.66 38.5515 409.525 39.8396 408.168C41.8647 406.04 42.3991 403.754 41.3106 401.959C40.9474 401.368 40.4412 400.878 39.8388 400.534C39.2363 400.19 38.557 400.004 37.8635 399.992V399.972Z" fill="#191919"/>
<path d="M104.77 414.397C103.661 414.397 102.534 414.397 101.386 414.329L101.474 412.092C118.739 412.764 131.669 408.232 139.926 398.618C154.774 381.328 149.557 353.095 149.503 352.811L151.699 352.389C151.935 353.586 157.191 381.951 141.638 400.07C133.469 409.585 121.073 414.397 104.77 414.397Z" fill="#191919"/>
<path d="M150.601 362.101C155.846 362.101 160.099 357.848 160.099 352.6C160.099 347.353 155.846 343.1 150.601 343.1C145.356 343.1 141.103 347.353 141.103 352.6C141.103 357.848 145.356 362.101 150.601 362.101Z" fill="#5FAE2D"/>
<path d="M141.103 361.738C141.103 361.738 143.378 357.137 145.163 356.897C146.948 356.657 145.394 360.689 145.394 360.689C145.394 360.689 149.606 355.641 151.508 357.299C153.411 358.957 148.355 367.315 148.355 367.315L141.103 361.738Z" fill="white"/>
<path d="M84.8963 357.77C85.3866 362.185 88.9072 366.055 93.384 365.893C97.8607 365.731 97.9392 361.714 97.4685 357.309C96.9977 352.905 94.8059 349.398 90.3341 349.564C85.8623 349.731 84.4256 353.366 84.8963 357.77Z" fill="#FBDDC9"/>
<path d="M86.6076 360.86L86.3771 364.397H94.9825L94.3058 359.806L86.6076 360.86Z" fill="#FBDDC9"/>
<path d="M95.8258 352.286C95.8258 352.286 95.1247 360.781 89.4515 363.195C83.7783 365.608 81.7631 356.588 84.6217 351.83C87.4804 347.072 94.1832 347.268 95.8258 352.286Z" fill="#191919"/>
<path d="M83.3223 357.721C83.3223 357.721 90.4861 356.588 93.3447 349.721C93.3447 349.721 82.376 342.442 80.802 341.903C79.228 341.363 83.3223 357.721 83.3223 357.721Z" fill="#5FAE2D"/>
<path d="M93.9528 347.406C91.5011 345.714 90.4861 347.945 89.4515 350.255C88.4169 352.566 87.4902 354.67 82.8173 355.651C82.8173 355.651 80.6647 357.083 81.969 358.888C83.2733 360.693 87.8971 359.05 89.5447 357.78C93.129 355.008 96.3113 349.039 93.9528 347.406Z" fill="white"/>
<path d="M104.711 421.117C107.255 408.855 109.158 399.271 109.158 399.271V398.329C118.126 400.904 127.227 404.774 138.607 391.393C144.744 384.205 149.908 376.24 153.965 367.703L137.97 359.678L123.691 377.468C105.25 363.058 94.9334 362.93 91.8934 362.705C91.8934 362.705 71.7456 367.703 65.7537 377.65C62.8754 382.422 55.5253 402.018 48.6558 421.117H104.711Z" fill="#FFEEB6"/>
<path d="M91.8934 362.705C82.7634 362.185 64.0326 361.13 57.1729 374.722C50.3131 388.313 36.8633 408.762 58.6439 412.588C80.4245 416.413 91.8934 362.705 91.8934 362.705Z" fill="#FFEEB6"/>
<path d="M197.531 173.006C197.707 177.225 196.138 180.717 191.921 180.894C187.704 181.07 185.851 177.72 185.675 173.502C185.498 169.284 187.067 165.786 191.284 165.615C195.501 165.443 197.354 168.788 197.531 173.006Z" fill="#FBDDC9"/>
<path d="M193.27 177.019L195.565 177.612C195.565 177.612 196.246 182.954 192.887 184.425C189.529 185.896 187.984 182.703 188.102 180.123C188.219 177.543 193.27 177.019 193.27 177.019Z" fill="#FBDDC9"/>
<path d="M185.993 166.237C185.993 166.237 190.955 169.082 197.178 165.011C197.178 165.011 193.128 154.848 192.132 153.514C191.137 152.18 185.993 166.237 185.993 166.237Z" fill="#5FAE2D"/>
<path d="M175.422 207.238C171.376 207.572 169.381 208.17 169.886 210.534C170.391 212.898 177.501 213.306 178.589 211.128C179.678 208.95 177.01 207.106 175.422 207.238Z" fill="#FBDDC9"/>
<path d="M196.8 167.881C198.487 167.881 199.605 166.552 198.595 165.286C198.011 164.555 195.947 163.525 194.8 163.29C191.039 162.525 183.62 164.075 183.949 166.821C184.238 169.185 185.145 168.96 188.759 167.778C190.838 167.096 194.299 167.876 196.8 167.881Z" fill="white"/>
<path d="M188.097 165.605C183.958 167.111 185.674 173.502 185.674 173.502C189.519 172.187 191.46 167.773 191.46 167.773C191.983 169.065 192.807 170.214 193.862 171.125C194.918 172.035 196.176 172.68 197.531 173.006C199.075 164.992 192.24 164.099 188.097 165.605Z" fill="white"/>
<path d="M121.279 268.437H23.2222V317.456H121.279V268.437Z" fill="#C2B5FF"/>
<path d="M47.5035 11.2324L47.327 124.566L47.0279 317.461H44.7821L45.0812 124.566L45.2578 11.2324H47.5035Z" fill="#191919"/>
<path d="M99.8907 317.461L100.195 124.566L100.371 11.2324H98.1304L97.9539 124.566L97.6499 317.461H99.8907Z" fill="#191919"/>
<path d="M98.7923 304.537H45.9246V306.779H98.7923V304.537Z" fill="#191919"/>
<path d="M98.8512 266.102H45.9835V268.344H98.8512V266.102Z" fill="#191919"/>
<path d="M98.91 227.662H46.0423V229.904H98.91V227.662Z" fill="#191919"/>
<path d="M98.9738 189.227H46.106V191.469H98.9738V189.227Z" fill="#191919"/>
<path d="M99.0326 150.792H46.1649V153.034H99.0326V150.792Z" fill="#191919"/>
<path d="M99.0914 112.352H46.2237V114.594H99.0914V112.352Z" fill="#191919"/>
<path d="M99.5524 73.4756H46.6846V75.7171H99.5524V73.4756Z" fill="#191919"/>
<path d="M99.3513 35.041H46.4836V37.2826H99.3513V35.041Z" fill="#191919"/>
<path d="M90.8293 79.3175C90.8293 79.3175 88.4757 73.304 89.069 71.5628C89.6623 69.8215 88.9612 69.3801 91.2216 68.3893C97.0517 65.8289 99.1993 76.4726 99.1993 76.4726L90.8293 79.3175Z" fill="#5FAE2D"/>
<path d="M89.9811 70.8371C89.9811 70.8371 88.1374 70.7145 87.6765 72.1369C87.2156 73.5594 88.4855 75.9235 89.4123 76.8358C90.339 77.7482 89.9811 70.8371 89.9811 70.8371Z" fill="#5FAE2D"/>
<path d="M58.7566 173.776L58.9381 222.34H72.5938L75.9869 173.776H58.7566Z" fill="#5FAE2D"/>
<path d="M69.8186 222.394C70.3815 224.609 70.6633 226.887 70.657 229.173L58.84 229.06L59.6147 222.193L69.8186 222.394Z" fill="#191919"/>
<path d="M80.4735 171.839C80.4735 171.839 83.999 187.795 81.2335 211.942H95.0021C95.0021 211.942 101.18 182.022 97.2919 162.348C93.4036 142.674 80.4735 171.839 80.4735 171.839Z" fill="#5FAE2D"/>
<path d="M82.6751 111.832C80.7444 110.317 78.5189 109.22 76.1408 108.614C73.7627 108.007 71.2843 107.903 68.8637 108.308C66.4431 108.713 64.1336 109.619 62.0827 110.967C60.0317 112.316 58.2844 114.077 56.9522 116.139C56.8934 116.237 56.8345 116.33 56.7708 116.423C50.7985 125.924 39.4865 129.176 41.3988 140.134C43.3111 151.091 55.0399 145.411 55.0399 145.411L50.7495 179.452H103.034C103.034 179.452 103.323 137.667 103.607 136.612C103.892 135.557 114.709 113.941 101.205 75.0552L87.6618 76.3942L92.4425 93.3702C92.4425 93.3702 90.2458 110.361 86.2987 114.716L82.6751 111.832Z" fill="#003E14"/>
<path d="M83.2246 101.31C83.4155 97.0879 80.9167 93.5456 77.6433 93.3974C74.3699 93.2493 71.5616 96.5515 71.3707 100.773C71.1798 104.995 73.6786 108.537 76.952 108.685C80.2254 108.833 83.0337 105.531 83.2246 101.31Z" fill="#191919"/>
<path d="M80.9687 93.4192C82.3417 95.8373 82.9791 102.645 75.3152 102.788C67.6513 102.93 67.9602 95.4302 70.3628 93.0513C73.0597 90.3732 79.2134 90.3193 80.9687 93.4192Z" fill="white"/>
<path d="M75.8006 99.7759L75.4035 99.8495C74.6944 99.96 73.9693 99.9028 73.2864 99.6825C72.6034 99.4622 71.9815 99.085 71.4705 98.581C70.9595 98.077 70.5736 97.4603 70.3438 96.7802C70.114 96.1002 70.0466 95.3758 70.1471 94.665C70.6374 90.7411 71.3141 85.7675 71.672 84.8552C72.03 83.9428 75.7761 88.4652 78.6838 92.2125C79.1682 92.8592 79.4811 93.6179 79.5933 94.4181C79.7056 95.2184 79.6135 96.034 79.3257 96.789C79.0379 97.544 78.5637 98.2138 77.9473 98.7361C77.3309 99.2584 76.5924 99.6161 75.8006 99.7759Z" fill="#5FAE2D"/>
<path d="M79.7331 103.984C72.7802 104.141 62.1399 103.048 59.8893 107.119C57.6387 111.19 56.9473 116.178 56.9473 116.178C56.9473 116.178 72.1476 123.045 83.4253 118.371C92.5014 114.618 90.2311 105.068 90.2311 105.068C86.7966 104.236 83.2653 103.871 79.7331 103.984Z" fill="#5FAE2D"/>
<path d="M76.036 116.997C76.036 116.997 88.0982 116.619 91.2363 127.032C94.3745 137.446 101.533 142.198 117.224 134.458L113.757 126.826C113.757 126.826 104.559 131.241 101.592 126.189C98.6256 121.137 97.5028 114.118 89.6869 110.856C81.871 107.594 82.2583 108.403 82.2583 108.403L76.036 116.997Z" fill="#5FAE2D"/>
<path d="M86.8527 206.306C84.7247 207.572 83.8225 213.325 83.7195 219.059C83.6165 224.793 89.5447 225.259 92.1581 222.885C94.7716 220.511 95.0168 201.45 86.8527 206.306Z" fill="#191919"/>
<path d="M248.707 237.197C248.707 237.197 244.946 210.475 235.252 211.201C231.908 211.451 225.823 210.505 226.328 218.902C226.441 220.702 223.96 223.434 223.68 225.175C223.312 227.456 225.642 228.898 226.549 229.099C227.634 229.419 228.788 229.419 229.873 229.099L227.833 237.192L248.707 237.197Z" fill="white"/>
<path d="M236.65 212.447C234.58 213.918 232.384 222.698 236.257 222.556C240.043 222.414 243.578 223.478 243.774 220.653C243.97 217.828 241.298 209.102 236.65 212.447Z" fill="#191919"/>
<path d="M226.622 225.2C225.068 225.312 224.695 226.843 227.431 226.843C229.054 226.843 229.094 225.023 226.622 225.2Z" fill="#191919"/>
<path d="M218.63 494.215H178.305L177.937 491.493L177.584 488.888L177.339 487.054L176.142 488.888L174.451 491.493L172.676 494.215H157.475C157.475 494.215 157.902 493.234 158.736 491.493C159.084 490.757 159.505 489.884 160.001 488.888C161.06 486.75 162.452 484.052 164.159 480.928L165.6 478.328C166.061 477.509 166.537 476.665 167.037 475.802C168.15 473.883 169.435 472.069 170.876 470.382C171.655 469.461 172.492 468.591 173.382 467.778C174.515 466.708 175.797 465.808 177.187 465.104C180.546 463.51 185.032 462.191 188.729 462.652C190.089 461.609 191.517 460.658 193.005 459.807C193.736 459.386 194.504 459.033 195.3 458.752C195.52 458.679 195.927 458.095 196.408 457.207C197.735 454.695 198.724 452.018 199.35 449.247C199.428 448.845 199.482 448.462 199.517 448.099C199.562 447.608 199.607 447.118 199.649 446.627C199.914 443.809 200.167 441.155 200.409 438.667C200.497 437.779 200.581 436.911 200.669 436.067C200.958 433.154 201.233 430.495 201.483 428.106C201.581 427.201 201.674 426.333 201.762 425.502C202.115 422.24 202.419 419.577 202.655 417.541C202.777 416.516 202.88 415.648 202.964 414.942C203.15 413.421 203.253 412.646 203.253 412.646L214.962 411.955C215.016 412.896 215.07 413.917 215.134 414.942L215.266 417.541C215.398 419.994 215.531 422.691 215.653 425.502C215.693 426.36 215.727 427.229 215.766 428.106C215.874 430.691 215.972 433.365 216.06 436.067L216.139 438.667C216.212 441.335 216.271 444.003 216.306 446.627L216.33 449.232C216.33 449.59 216.33 449.948 216.33 450.306C216.33 452.214 216.399 454.569 216.497 457.173C216.526 458.012 216.561 458.88 216.6 459.773C216.703 462.299 216.835 465.001 216.977 467.733L217.124 470.338C217.272 473.045 217.428 475.733 217.585 478.299L217.747 480.898C217.934 483.929 218.115 486.666 218.262 488.859C218.326 489.84 218.385 490.723 218.434 491.463C218.556 493.214 218.63 494.215 218.63 494.215Z" fill="white"/>
<path d="M219.478 402.915H204.047V406.775H219.478V402.915Z" fill="#191919"/>
<path d="M202.12 410.042C205.153 410.042 207.612 407.582 207.612 404.548C207.612 401.514 205.153 399.055 202.12 399.055C199.087 399.055 196.629 401.514 196.629 404.548C196.629 407.582 199.087 410.042 202.12 410.042Z" fill="#191919"/>
<path d="M222.896 410.341C225.929 410.341 228.387 407.882 228.387 404.848C228.387 401.814 225.929 399.354 222.896 399.354C219.863 399.354 217.404 401.814 217.404 404.848C217.404 407.882 219.863 410.341 222.896 410.341Z" fill="#191919"/>
<path d="M215.256 417.551H202.65C202.772 416.526 202.875 415.658 202.959 414.952H215.129L215.256 417.551Z" fill="#5FAE2D"/>
<path d="M215.747 428.116H201.478C201.576 427.21 201.669 426.342 201.757 425.512H215.649C215.688 426.37 215.747 427.219 215.747 428.116Z" fill="#5FAE2D"/>
<path d="M200.664 436.077H216.056L216.134 438.677H200.404L200.664 436.077Z" fill="#5FAE2D"/>
<path d="M216.301 446.638H199.644L199.345 449.242H216.325L216.301 446.638Z" fill="#5FAE2D"/>
<path d="M193.005 459.802H216.605C216.565 458.91 216.531 458.041 216.502 457.203H196.398L193.005 459.802Z" fill="#5FAE2D"/>
<path d="M217.129 470.382H170.876L173.382 467.778H216.982L217.129 470.382Z" fill="#5FAE2D"/>
<path d="M165.62 478.328H217.59L217.752 480.928H164.178L165.62 478.328Z" fill="#5FAE2D"/>
<path d="M160.02 488.889H176.142L174.451 491.493H158.76C159.103 490.757 159.525 489.884 160.02 488.889Z" fill="#5FAE2D"/>
<path d="M218.439 491.473H177.937L177.584 488.869H218.282C218.331 489.874 218.39 490.752 218.439 491.473Z" fill="#5FAE2D"/>
<path d="M186.591 459.14L188.729 462.647C188.729 462.647 193.814 463.795 195.452 461.176C197.089 458.556 194.471 454.608 194.471 454.608L186.591 459.14Z" fill="#FBDDC9"/>
<path d="M184.409 457.389C187.7 460.587 193.088 461.313 196.545 458.238C200.002 455.162 197.408 451.896 194.118 448.693C190.828 445.49 186.763 444.156 183.331 447.251C179.898 450.346 181.119 454.196 184.409 457.389Z" fill="#FBDDC9"/>
<path d="M184.748 455.858C184.748 455.858 187.052 448.707 182.036 442.851C182.036 442.851 170.185 449.59 168.949 450.792C167.714 451.993 184.748 455.858 184.748 455.858Z" fill="#5FAE2D"/>
<path d="M181.188 444.092C181.124 443.735 180.958 443.405 180.711 443.14C180.464 442.876 180.145 442.689 179.794 442.601C179.443 442.514 179.073 442.529 178.731 442.647C178.389 442.764 178.087 442.978 177.863 443.263C177.2 444.067 176.739 445.019 176.52 446.039C175.78 449.575 179.207 456.231 181.762 456.736C184.316 457.242 185.013 454.549 183.296 451.415C182.306 449.615 181.605 446.456 181.188 444.092Z" fill="white"/>
<path d="M191.23 435.955C187.307 433.659 186.253 439.677 182.12 441.683C177.986 443.69 179.32 448.639 179.32 448.639C180.39 452.901 182.968 456.632 186.577 459.14C190.607 455.707 185.062 448.997 185.062 448.997C194.814 446.314 195.153 438.245 191.23 435.955Z" fill="#191919"/>
<path d="M210.142 412.249C210.142 412.249 210.073 403.469 212.251 402.547C214.428 401.625 214.957 411.964 214.957 411.964L210.142 412.249Z" fill="#FBDDC9"/>
<path d="M276.014 384.929C274.881 389.956 273.812 397.25 272.532 401.988C271.159 407.065 268.119 412.691 264.687 420.195C268.467 420.494 274.665 421.176 279.049 422.481C279.049 422.422 279.662 420.48 280.735 414.241C281.824 407.908 283.187 395.7 283.408 389.951C283.466 388.369 283.443 386.784 283.339 385.203C279.49 383.933 278.298 385.895 276.014 384.929Z" fill="#FBDDC9"/>
<path d="M283.344 385.203C283.128 381.937 282.648 379.646 282.589 378.827C282.506 377.694 283.109 376.169 282.79 375.732C282.471 375.295 281 374.751 280.559 375.207C280.196 375.57 278.892 376.806 277.254 380.603C276.723 381.992 276.308 383.422 276.014 384.88C276.967 385.351 278.006 385.625 279.068 385.684C279.863 386.596 282.035 385.478 283.344 385.203Z" fill="#FBDDC9"/>
<path d="M344.405 465.478C343.606 470.265 339.943 473.119 335.579 474.174L334.299 483.665L327.116 487.319C327.116 487.319 314.269 480.604 304.521 475.278C294.774 469.951 284.859 463.31 282.094 461.779C284.604 458.517 290.429 450.758 292.19 446.603C294.367 441.488 295.911 434.832 294.676 427.793C298.378 429.264 302.624 431.03 307.297 433.188C320.4 439.304 331.818 448.517 340.566 460.033C341.885 461.769 343.179 463.628 344.405 465.478Z" fill="#93FF43"/>
<path d="M292.758 446.711C289.856 454.147 285.217 459.626 282.094 461.799L282.035 461.764C279.358 460.293 270.232 458.184 270.232 458.184C270.232 458.184 268.384 455.373 263.25 453.946C260.727 453.198 258.077 452.975 255.464 453.289C256.021 448.454 256.866 443.657 257.994 438.922L257.871 438.883C258.962 434.72 260.299 430.625 261.877 426.621C262.824 424.33 263.77 422.206 264.687 420.205C267.57 419.597 274.665 421.186 279.049 422.491C279.049 422.491 284.992 424.021 294.671 427.822C295.753 434.176 295.092 440.704 292.758 446.711Z" fill="#5FAE2D"/>
<path d="M270.232 458.183C269.992 460.553 266.8 471.594 265.986 475.4C265.172 479.206 261.657 493.249 260.411 494.151C259.166 495.054 250.413 493.837 249.977 494.034C249.54 494.23 246.638 495.338 246.054 494.701C245.235 493.769 248.266 492.768 249.305 491.817C249.751 491.409 251.325 491.179 252.213 491.135C252.401 491.114 252.576 491.027 252.706 490.89C252.836 490.753 252.913 490.573 252.924 490.384C252.991 487.656 253.245 484.936 253.684 482.242C254.777 475.154 255.254 467.984 255.111 460.813C255.076 458.3 255.189 455.788 255.449 453.288C258.06 452.975 260.709 453.199 263.231 453.946C268.384 455.373 270.232 458.183 270.232 458.183Z" fill="#FBDDC9"/>
<path d="M356.928 486.515C356.747 486.941 356.129 486.814 356.129 486.814C356.129 486.814 356.708 487.182 356.526 487.707C356.345 488.231 355.629 487.839 355.58 487.814C355.619 487.844 356.34 488.428 356.026 488.849C355.712 489.271 354.81 488.639 354.746 488.589C354.805 488.648 355.398 489.217 355.045 489.767C354.692 490.316 353.918 490.257 352.868 489.708C352.344 489.433 343.214 482.247 333.255 474.576C338.58 474.086 343.449 471.103 344.386 465.497C348.558 471.873 351.917 478.323 352.672 479.486C353.653 480.982 356.678 484.15 356.879 484.808C357.08 485.465 356.565 485.622 356.565 485.622C356.565 485.622 357.115 486.078 356.928 486.515Z" fill="#FBDDC9"/>
<path d="M350.466 494.632C350.838 494.353 350.569 493.784 350.569 493.784C350.569 493.784 351.059 494.274 351.525 493.96C351.991 493.646 351.451 493.058 351.417 493.019C351.383 492.979 352.187 493.612 352.525 493.205C352.863 492.798 352.035 492.077 351.976 492.023C352.04 492.067 352.736 492.513 353.187 492.023C353.638 491.532 353.403 490.811 352.623 489.914C352.236 489.467 343.121 482.262 333.348 474.38C334.089 479.682 332.367 485.107 327.116 487.319C334.28 489.894 341.336 491.66 342.64 492.126C344.327 492.719 348.112 494.936 348.799 494.981C349.485 495.025 349.514 494.49 349.514 494.49C349.514 494.49 350.098 494.907 350.466 494.632Z" fill="#FBDDC9"/>
<path d="M255.851 439.241L260.156 439.957C260.156 439.957 264.613 436.666 263.633 433.517C262.652 430.368 257.67 429.75 257.67 429.75L255.851 439.241Z" fill="#FBDDC9"/>
<path d="M252.929 439.78C257.788 439.359 262.127 435.538 262.039 430.608C261.951 425.679 257.538 425.507 252.683 425.934C247.829 426.361 243.926 428.7 244.014 433.625C244.103 438.549 248.074 440.207 252.929 439.78Z" fill="#FBDDC9"/>
<path d="M251.938 438.446C251.938 438.446 247.785 431.628 239.592 431.579C239.592 431.579 236.782 445.803 236.89 447.623C236.998 449.443 251.938 438.446 251.938 438.446Z" fill="#5FAE2D"/>
<path d="M240.003 433.144C239.673 432.948 239.293 432.852 238.909 432.867C238.525 432.882 238.153 433.008 237.839 433.229C237.524 433.45 237.281 433.758 237.137 434.114C236.993 434.471 236.955 434.861 237.027 435.238C237.211 436.333 237.656 437.366 238.326 438.25C240.656 441.306 248.388 443.155 250.585 441.463C252.781 439.771 251.075 437.323 247.373 436.558C245.221 436.077 242.19 434.449 240.003 433.144Z" fill="white"/>
<path d="M243.279 438.22C240.528 437.171 236.547 433.1 236.772 429.676C236.998 426.252 242.166 429.804 242.166 429.804C242.166 429.804 240.969 425.075 242.793 423.476C244.617 421.877 248.02 424.904 248.486 432.261C248.854 438.049 248.834 439.559 248.834 439.559C248.834 439.559 246.824 439.574 243.279 438.22Z" fill="#191919"/>
<path d="M246.638 433.418C246.638 433.418 255.89 433.624 255.841 439.241C251.318 440.399 246.529 439.876 242.362 437.769L246.638 433.418Z" fill="#191919"/>
<path d="M179.276 66.692C187.565 66.692 194.285 59.97 194.285 51.678C194.285 43.386 187.565 36.6641 179.276 36.6641C170.986 36.6641 164.267 43.386 164.267 51.678C164.267 59.97 170.986 66.692 179.276 66.692Z" fill="#93FF43"/>
<path d="M186.498 48.0141C186.433 47.1373 186.046 46.3155 185.413 45.7056C184.78 45.0958 183.944 44.7407 183.066 44.7082C182.343 44.6563 181.62 44.8189 180.989 45.1757C180.357 45.5326 179.845 46.0677 179.516 46.7143C179.484 46.7748 179.436 46.8255 179.377 46.8608C179.318 46.8961 179.251 46.9148 179.182 46.9148C179.114 46.9148 179.047 46.8961 178.988 46.8608C178.929 46.8255 178.881 46.7748 178.849 46.7143C178.52 46.0677 178.008 45.5326 177.376 45.1757C176.745 44.8189 176.022 44.6563 175.299 44.7082C174.421 44.7407 173.585 45.0958 172.952 45.7056C172.319 46.3155 171.932 47.1373 171.867 48.0141C171.829 48.8711 172.125 49.7093 172.69 50.3538L178.584 58.3684C178.657 58.463 178.751 58.5397 178.858 58.5924C178.965 58.6452 179.083 58.6726 179.202 58.6726C179.321 58.6726 179.439 58.6452 179.546 58.5924C179.654 58.5397 179.747 58.463 179.82 58.3684L185.675 50.3734C186.243 49.7229 186.539 48.8774 186.498 48.0141Z" fill="white"/>
<path d="M141.03 37.753C149.319 37.753 156.039 31.0311 156.039 22.7391C156.039 14.4471 149.319 7.7251 141.03 7.7251C132.74 7.7251 126.021 14.4471 126.021 22.7391C126.021 31.0311 132.74 37.753 141.03 37.753Z" fill="#93FF43"/>
<path d="M148.252 19.0751C148.187 18.1984 147.8 17.3765 147.167 16.7667C146.534 16.1568 145.698 15.8017 144.82 15.7692C144.097 15.7173 143.374 15.88 142.743 16.2368C142.111 16.5936 141.599 17.1288 141.27 17.7753C141.238 17.8359 141.19 17.8865 141.131 17.9218C141.072 17.9572 141.005 17.9758 140.936 17.9758C140.868 17.9758 140.801 17.9572 140.742 17.9218C140.683 17.8865 140.635 17.8359 140.603 17.7753C140.274 17.1288 139.762 16.5936 139.13 16.2368C138.499 15.88 137.776 15.7173 137.053 15.7692C136.175 15.8017 135.339 16.1568 134.706 16.7667C134.073 17.3765 133.686 18.1984 133.621 19.0751C133.583 19.9321 133.879 20.7704 134.444 21.4148L140.338 29.4294C140.411 29.5241 140.505 29.6007 140.612 29.6535C140.719 29.7062 140.837 29.7336 140.956 29.7336C141.075 29.7336 141.193 29.7062 141.3 29.6535C141.408 29.6007 141.501 29.5241 141.574 29.4294L147.429 21.4344C147.997 20.784 148.293 19.9385 148.252 19.0751Z" fill="white"/>
<path d="M153.577 91.7076C160.399 91.7076 165.929 86.1758 165.929 79.3521C165.929 72.5283 160.399 66.9966 153.577 66.9966C146.756 66.9966 141.226 72.5283 141.226 79.3521C141.226 86.1758 146.756 91.7076 153.577 91.7076Z" fill="#93FF43"/>
<path d="M159.515 76.3356C159.461 75.6171 159.144 74.9436 158.627 74.4428C158.109 73.942 157.425 73.6486 156.706 73.6182C156.111 73.5736 155.516 73.7063 154.997 73.9996C154.478 74.293 154.057 74.7338 153.788 75.2663C153.762 75.3167 153.723 75.359 153.674 75.3886C153.626 75.4181 153.57 75.4337 153.514 75.4337C153.457 75.4337 153.401 75.4181 153.353 75.3886C153.304 75.359 153.265 75.3167 153.239 75.2663C152.967 74.7305 152.543 74.2877 152.019 73.9942C151.495 73.7008 150.895 73.5699 150.297 73.6182C149.577 73.6486 148.894 73.942 148.376 74.4428C147.858 74.9436 147.542 75.6171 147.487 76.3356C147.46 77.0417 147.704 77.7315 148.169 78.2632L152.984 84.8554C153.043 84.9346 153.12 84.9989 153.209 85.0431C153.297 85.0874 153.395 85.1105 153.494 85.1105C153.593 85.1105 153.69 85.0874 153.779 85.0431C153.868 84.9989 153.945 84.9346 154.004 84.8554L158.819 78.2779C159.296 77.7464 159.546 77.0492 159.515 76.3356Z" fill="white"/>
<path d="M198.443 55.9161C198.443 55.9161 192.314 51.8892 189.94 52.8849C187.567 53.8806 192.392 57.726 192.392 57.726C192.392 57.726 183.566 54.5574 182.404 57.9713C181.242 61.3851 193.539 68.0313 193.539 68.0313L198.443 55.9161Z" fill="#FBDDC9"/>
<path d="M270.664 19.669C270.664 19.669 257.852 19.7573 255.621 27.5169C254.684 30.7786 251.673 33.9815 247.981 35.5315C243.941 37.2286 237.88 39.8086 229.422 34.6094C226.519 32.824 225.838 29.4886 222.332 33.2409C218.409 37.4297 212.388 33.2409 211.466 25.8197C210.716 19.8406 216.58 14.4796 225.249 14.2736C229.378 14.1755 232.683 16.8241 236.14 17.2165C239.376 17.5844 242.808 15.8529 245.417 11.4091C249.692 4.13508 260.289 2.53117 265.128 3.92417L270.664 19.669Z" fill="#191919"/>
<path fill-rule="evenodd" clip-rule="evenodd" d="M197.183 95.4695C197.183 95.4695 202.473 50.9328 208.617 43.8452C212.8 39.0236 221.155 39.5288 230.829 39.5288C240.607 39.5288 249.129 40.4166 253.326 51.0113C254.9 54.9695 258.572 67.8351 261.583 78.7094C262.128 80.6735 262.211 82.737 261.825 84.7385C261.44 86.74 260.597 88.6253 259.363 90.2469C258.128 91.8684 256.536 93.1823 254.709 94.0858C252.883 94.9893 250.872 95.4578 248.834 95.4548C237.292 95.4548 224.254 95.4548 224.401 95.4106C224.401 95.4106 224.426 95.3763 224.445 95.3174L211.471 95.4695H197.183Z" fill="#5FAE2D"/>
<path d="M230.829 39.5288C232.879 39.5288 234.87 39.568 236.777 39.725C234.6 45.2528 229.138 60.4679 229.138 74.1036H219.179C219.179 74.1036 214.202 52.8457 217.61 39.8869C221.435 39.4013 225.965 39.5288 230.829 39.5288Z" fill="#FFEEB6"/>
<path d="M214.089 30.4842C213.811 28.3873 213.728 26.2691 213.839 24.1568C214.776 23.3092 215.569 22.3153 216.188 21.2139C219.856 23.1023 223.621 24.7984 227.466 26.2954C227.466 26.2954 228.53 30.9649 229.044 32.6129C229.559 34.261 232.07 39.9703 232.07 39.9703L223.038 42.7367L221.4 38.0819C216.188 38.749 214.766 35.9483 214.089 30.4842Z" fill="#FBDDC9"/>
<path d="M230.829 39.5288C231.766 39.5288 232.693 39.5288 233.6 39.5582C232.246 41.9567 228.888 47.1706 225.46 46.7194C222.273 46.3074 220.743 41.8733 220.174 39.6514C223.406 39.4503 227.024 39.5288 230.829 39.5288Z" fill="#FBDDC9"/>
<path d="M245.74 75.3395L201.934 51.9136C201.934 51.9136 189.783 58.7363 190.249 71.8717L228.436 95.3074L245.74 75.3395Z" fill="#5FAE2D"/>
<path d="M212.765 17.6579C212.765 17.6579 219.792 19.3305 225.877 12.1693C225.877 12.1693 217.335 1.3049 215.649 0.044331C213.962 -1.21623 212.765 17.6579 212.765 17.6579Z" fill="#5FAE2D"/>
<path d="M226.446 15.7989C228.495 15.1956 229.388 13.1846 227.696 12.0123C226.715 11.3306 223.857 10.8253 222.386 10.9529C217.551 11.3698 209.112 15.9019 210.495 19.1098C211.687 21.8761 212.711 21.2777 216.668 18.5506C218.944 16.981 223.415 16.6769 226.446 15.7989Z" fill="white"/>
<path d="M337.967 81.9467C337.967 81.9467 336.123 75.6095 333.917 74.9032C331.71 74.1969 332.77 79.6512 332.77 79.6512C332.77 79.6512 328.572 72.3183 325.792 73.986C323.012 75.6536 327.538 87.3764 327.538 87.3764L337.967 81.9467Z" fill="#FBDDC9"/>
<path d="M322.473 86.9837L344.896 79.1359L349.907 89.6373C349.907 89.6373 351.231 73.7159 374.423 71.7147L389.531 71.4891C389.531 71.4891 407.908 70.6994 415.606 83.4522C420.544 91.6336 426.124 107.123 429.669 118.768C431.915 126.15 424.143 141.6 407.246 132.644L355.183 131.005V125.394C355.183 125.394 341.944 134.787 334.883 124.158C327.822 113.529 322.473 86.9837 322.473 86.9837Z" fill="#FFEEB6"/>
<path d="M389.511 71.4698L374.404 71.6955C372.437 71.8604 370.482 72.1554 368.554 72.5783C370.344 75.5458 374.276 79.7444 382.195 79.7444C390.041 79.7444 395.076 75.3742 397.69 72.2301C394.998 71.685 392.257 71.4301 389.511 71.4698Z" fill="#FBDDC9"/>
<path d="M373.874 47.0531C373.874 47.7565 373.666 48.444 373.275 49.0288C372.884 49.6136 372.329 50.0694 371.68 50.3385C371.03 50.6077 370.315 50.6781 369.626 50.5409C368.936 50.4037 368.303 50.065 367.806 49.5677C367.308 49.0703 366.97 48.4367 366.833 47.7469C366.696 47.0571 366.766 46.3421 367.035 45.6923C367.304 45.0425 367.76 44.4871 368.344 44.0964C368.929 43.7056 369.616 43.4971 370.319 43.4971C371.262 43.4971 372.166 43.8717 372.833 44.5386C373.5 45.2055 373.874 46.11 373.874 47.0531Z" fill="#191919"/>
<path d="M394.944 47.004C395.655 49.5241 395.604 52.1986 394.796 54.6894C393.988 57.1802 392.46 59.3755 390.405 60.9978C388.35 62.6201 385.86 63.5966 383.251 63.8039C380.641 64.0112 378.029 63.4399 375.744 62.1624C373.459 60.8848 371.604 58.9582 370.413 56.6261C369.222 54.2941 368.749 51.6613 369.054 49.0605C369.359 46.4596 370.427 44.0076 372.125 42.0142C373.823 40.0208 376.073 38.5756 378.591 37.8612C380.265 37.3864 382.016 37.2463 383.744 37.4489C385.472 37.6515 387.143 38.1929 388.662 39.042C390.181 39.8911 391.517 41.0314 392.595 42.3976C393.673 43.7637 394.471 45.329 394.944 47.004Z" fill="#191919"/>
<path d="M389.737 73.3236L388.947 62.0128C384.044 60.8013 383.843 54.2974 383.843 54.2974C383.843 54.2974 379.709 51.8449 380.41 43.8548L372.786 42.2705C372.786 42.2705 369.594 44.8995 369.216 47.4256C369.049 48.5586 368.878 49.878 368.726 51.4525C368.108 57.8289 366.274 65.8975 374.438 66.8834V72.8086C374.438 72.8086 375.223 74.7705 381.259 75.261C387.295 75.7515 389.737 73.3236 389.737 73.3236Z" fill="#FBDDC9"/>
<path d="M393.512 40.6815C393.308 40.6828 393.105 40.6992 392.904 40.7305C393.327 39.5012 393.331 38.1665 392.915 36.9346C392.5 35.7028 391.689 34.6432 390.608 33.9212C389.527 33.1992 388.238 32.8554 386.941 32.9434C385.645 33.0315 384.414 33.5465 383.441 34.4081C383.057 33.5614 382.415 32.8576 381.608 32.3971C380.801 31.9365 379.868 31.7427 378.944 31.8433C378.02 31.9439 377.152 32.3337 376.462 32.9572C375.773 33.5807 375.298 34.406 375.105 35.3155C374.158 34.8923 373.115 34.7272 372.084 34.837C371.052 34.9468 370.068 35.3274 369.23 35.9405C368.393 36.5535 367.733 37.3771 367.316 38.3277C366.9 39.2783 366.742 40.3221 366.859 41.3533C366.976 42.3846 367.364 43.3665 367.982 44.1997C368.601 45.0328 369.429 45.6875 370.382 46.0974C371.335 46.5072 372.38 46.6577 373.41 46.5335C374.44 46.4093 375.419 46.0149 376.247 45.3902C376.51 46.4377 377.147 47.3526 378.038 47.962C378.929 48.5713 380.013 48.8327 381.084 48.6968C382.155 48.5608 383.139 48.0369 383.849 47.2242C384.56 46.4115 384.949 45.3664 384.941 44.2866C384.941 44.213 384.941 44.1443 384.941 44.0708C385.71 44.4249 386.546 44.609 387.393 44.6103C387.995 44.6124 388.594 44.5197 389.168 44.3356C389.011 45.2277 389.132 46.1464 389.515 46.9672C389.898 47.788 390.524 48.4711 391.308 48.924C392.092 49.3768 392.996 49.5773 393.898 49.4985C394.8 49.4196 395.656 49.065 396.35 48.483C397.044 47.9009 397.542 47.1195 397.776 46.2447C398.011 45.3699 397.971 44.444 397.661 43.5928C397.352 42.7415 396.789 42.0061 396.047 41.4861C395.306 40.9662 394.422 40.687 393.517 40.6864L393.512 40.6815Z" fill="#191919"/>
<path d="M338.114 21.2432H302.001C298.993 21.2432 296.554 23.6829 296.554 26.6925V51.0504C296.554 54.06 298.993 56.4998 302.001 56.4998H338.114C341.123 56.4998 343.562 54.06 343.562 51.0504V26.6925C343.562 23.6829 341.123 21.2432 338.114 21.2432Z" fill="#93FF43"/>
<path d="M309.4 45.3018C309.34 45.3022 309.281 45.2906 309.225 45.2679C309.17 45.2452 309.119 45.2117 309.077 45.1694L303.864 39.9604C303.784 39.8706 303.74 39.7545 303.74 39.6342C303.74 39.5139 303.784 39.3978 303.864 39.308L309.4 33.79C309.443 33.7471 309.494 33.7131 309.55 33.6899C309.606 33.6667 309.666 33.6548 309.726 33.6548C309.787 33.6548 309.847 33.6667 309.903 33.6899C309.959 33.7131 310.01 33.7471 310.052 33.79C310.132 33.8798 310.177 33.9959 310.177 34.1162C310.177 34.2364 310.132 34.3525 310.052 34.4423L304.845 39.6367L309.719 44.5416C309.783 44.606 309.826 44.6878 309.843 44.7766C309.861 44.8655 309.851 44.9575 309.817 45.0411C309.782 45.1248 309.724 45.1965 309.649 45.2472C309.574 45.298 309.486 45.3255 309.395 45.3264L309.4 45.3018Z" fill="#191919" stroke="black" stroke-width="2" stroke-miterlimit="10"/>
<path d="M330.411 45.3017C330.289 45.3 330.172 45.2528 330.083 45.1692C330.003 45.0794 329.958 44.9633 329.958 44.8431C329.958 44.7228 330.003 44.6067 330.083 44.5169L335.28 39.3226L330.401 34.4177C330.358 34.3748 330.324 34.324 330.301 34.268C330.278 34.212 330.266 34.1521 330.266 34.0915C330.266 34.0309 330.278 33.9709 330.301 33.9149C330.324 33.859 330.358 33.8081 330.401 33.7653C330.443 33.722 330.494 33.6876 330.549 33.664C330.605 33.6405 330.665 33.6284 330.725 33.6284C330.785 33.6284 330.845 33.6405 330.901 33.664C330.956 33.6876 331.006 33.722 331.049 33.7653L336.256 38.9939C336.336 39.0838 336.38 39.1999 336.38 39.3201C336.38 39.4404 336.336 39.5565 336.256 39.6463L330.735 45.1692C330.692 45.2115 330.642 45.245 330.586 45.2677C330.531 45.2904 330.471 45.302 330.411 45.3017Z" fill="#191919" stroke="black" stroke-width="2" stroke-miterlimit="10"/>
<path d="M316.265 47.9213C316.203 47.9199 316.141 47.9066 316.084 47.8821C315.971 47.8345 315.882 47.7442 315.836 47.6311C315.79 47.518 315.791 47.3913 315.838 47.2788L323.463 29.4592C323.511 29.3467 323.602 29.2579 323.716 29.2123C323.829 29.1668 323.956 29.1683 324.069 29.2164C324.181 29.2645 324.27 29.3554 324.315 29.469C324.361 29.5826 324.359 29.7096 324.311 29.8221L316.672 47.6417C316.635 47.7202 316.578 47.7874 316.506 47.8365C316.435 47.8856 316.351 47.9149 316.265 47.9213Z" fill="#191919" stroke="black" stroke-width="2" stroke-miterlimit="10"/>
<path d="M377.223 91.1582H339.87C337.075 91.1582 334.809 93.4245 334.809 96.2201V118.876C334.809 121.672 337.075 123.938 339.87 123.938H377.223C380.018 123.938 382.283 121.672 382.283 118.876V96.2201C382.283 93.4245 380.018 91.1582 377.223 91.1582Z" fill="#F5F5FA"/>
<path d="M358.546 112.666C357.534 112.667 356.543 112.368 355.701 111.805C354.858 111.243 354.201 110.443 353.813 109.507C353.425 108.572 353.323 107.542 353.521 106.548C353.718 105.554 354.206 104.641 354.922 103.925C355.638 103.208 356.551 102.72 357.544 102.523C358.537 102.326 359.567 102.427 360.503 102.816C361.438 103.204 362.238 103.861 362.8 104.704C363.362 105.547 363.662 106.537 363.661 107.55C363.659 108.907 363.12 110.207 362.161 111.166C361.202 112.126 359.902 112.665 358.546 112.666ZM358.546 103.347C357.716 103.347 356.905 103.593 356.215 104.055C355.524 104.516 354.986 105.172 354.669 105.939C354.351 106.706 354.268 107.55 354.43 108.365C354.592 109.179 354.991 109.927 355.578 110.514C356.165 111.102 356.913 111.501 357.728 111.663C358.542 111.825 359.386 111.742 360.153 111.425C360.92 111.107 361.575 110.569 362.036 109.878C362.497 109.188 362.744 108.376 362.744 107.546C362.742 106.433 362.3 105.366 361.513 104.58C360.726 103.794 359.659 103.352 358.546 103.352V103.347Z" fill="#191919" stroke="black" stroke-width="0.5" stroke-miterlimit="10"/>
<path d="M390.305 104.347C390.305 104.347 385.186 100.183 382.95 100.855C380.714 101.527 384.706 105.412 384.706 105.412C384.706 105.412 377.086 101.763 375.747 104.715C374.409 107.668 384.784 114.741 384.784 114.741L390.305 104.347Z" fill="#FBDDC9"/>
<path d="M395.071 42.295C395.071 42.295 383.637 44.6788 375.404 35.9628C375.404 35.9628 387.77 18.7318 389.835 17.0151C391.899 15.2983 395.071 42.295 395.071 42.295Z" fill="#5FAE2D"/>
<path d="M373.168 32.8239C375.875 28.9 378.694 31.6566 381.577 34.5505C384.461 37.4444 387.069 40.1077 394.64 38.8717C394.64 38.8717 398.71 39.8036 397.773 43.2861C396.837 46.7686 388.947 46.9109 385.721 45.9397C378.743 43.811 370.55 36.6351 373.168 32.8239Z" fill="white"/>
<path d="M479.727 147.579C478.13 147.241 476.59 146.676 475.153 145.902C473.71 145.129 472.416 144.108 471.328 142.885C470.191 141.592 469.311 140.093 468.734 138.471C468.071 136.591 467.747 134.608 467.778 132.614C467.748 130.755 468.041 128.904 468.646 127.145C469.172 125.631 470.007 124.243 471.098 123.069C472.137 121.953 473.414 121.084 474.834 120.529C476.337 119.95 477.936 119.662 479.546 119.68C481.859 119.657 484.144 120.183 486.214 121.215C488.252 122.229 490.134 123.529 491.804 125.075C493.479 126.639 495.001 128.358 496.35 130.211C497.706 132.068 498.906 133.836 499.949 135.513L502.631 139.81V118.208H507.372V148.619H503.45L497.816 140.134C495.953 137.344 494.231 134.962 492.653 132.987C491.294 131.253 489.791 129.637 488.161 128.156C486.943 127.038 485.558 126.116 484.057 125.424C482.802 124.859 481.442 124.563 480.066 124.555C478.862 124.524 477.665 124.743 476.55 125.198C475.633 125.59 474.827 126.203 474.206 126.983C473.598 127.78 473.161 128.693 472.922 129.666C472.657 130.733 472.527 131.829 472.534 132.928C472.497 134.408 472.763 135.88 473.314 137.254C473.791 138.4 474.483 139.445 475.354 140.33C476.157 141.147 477.103 141.812 478.144 142.292C479.108 142.742 480.132 143.052 481.184 143.214L479.727 147.579Z" fill="black"/>
<path d="M487.818 113.794C485.117 113.828 482.424 113.499 479.811 112.813C477.523 112.218 475.371 111.185 473.476 109.772C471.687 108.411 470.253 106.64 469.293 104.608C468.24 102.301 467.724 99.7852 467.783 97.2501C467.726 94.7266 468.202 92.2196 469.18 89.8927C470.073 87.8597 471.452 86.0776 473.196 84.7033C475.078 83.2429 477.239 82.183 479.546 81.5887C482.252 80.8889 485.038 80.5508 487.833 80.5832C490.535 80.559 493.228 80.8888 495.845 81.5642C498.133 82.1461 500.285 83.1709 502.18 84.5807C503.967 85.943 505.401 87.7142 506.362 89.7456C507.415 92.0524 507.931 94.5679 507.873 97.103C507.918 99.5689 507.401 102.013 506.362 104.249C505.389 106.296 503.958 108.092 502.18 109.498C500.292 110.961 498.141 112.05 495.845 112.706C493.236 113.456 490.532 113.823 487.818 113.794ZM487.818 108.89C492.584 108.89 496.324 107.846 499.037 105.76C501.75 103.674 503.108 100.79 503.111 97.1079C503.111 93.0924 501.753 90.1494 499.037 88.279C496.32 86.4086 492.581 85.4783 487.818 85.4881C483.055 85.4881 479.317 86.4364 476.604 88.333C473.891 90.2295 472.533 93.1888 472.529 97.2109C472.484 98.9987 472.846 100.773 473.588 102.4C474.291 103.848 475.347 105.097 476.658 106.03C478.113 107.053 479.754 107.783 481.488 108.178C483.561 108.671 485.687 108.91 487.818 108.89Z" fill="black"/>
<path d="M479.727 75.4477C478.122 75.116 476.574 74.5508 475.133 73.7702C473.692 72.9977 472.397 71.9784 471.308 70.7586C470.172 69.4646 469.292 67.9666 468.714 66.3442C468.057 64.4614 467.74 62.4767 467.778 60.4828C467.748 58.6232 468.041 56.7725 468.646 55.0138C469.174 53.5009 470.009 52.1133 471.098 50.9378C472.137 49.8213 473.414 48.953 474.834 48.397C476.336 47.8154 477.935 47.5225 479.546 47.5338C481.859 47.5084 484.145 48.0347 486.214 49.069C488.255 50.0962 490.137 51.4111 491.804 52.9733C493.477 54.5388 494.999 56.2582 496.35 58.1088C497.706 59.9727 498.906 61.7401 499.949 63.411L502.592 67.6881V46.1064H507.333V76.517H503.41L497.777 68.0315C495.913 65.2422 494.192 62.86 492.613 60.885C491.255 59.1511 489.752 57.5349 488.122 56.0536C486.902 54.9377 485.518 54.0162 484.018 53.3216C482.762 52.7568 481.403 52.4611 480.026 52.4534C478.823 52.4222 477.626 52.6409 476.511 53.096C475.593 53.4893 474.788 54.1045 474.167 54.8863C473.558 55.6804 473.121 56.5923 472.882 57.5643C472.618 58.6329 472.488 59.7303 472.495 60.831C472.459 62.311 472.724 63.7829 473.275 65.1572C473.753 66.3013 474.445 67.3434 475.314 68.2277C476.117 69.0465 477.062 69.7115 478.104 70.1896C479.069 70.6395 480.093 70.95 481.144 71.1117L479.727 75.4477Z" fill="black"/>
<path d="M477.776 42.0056C476.348 41.4976 475.003 40.782 473.785 39.8817C472.56 38.9746 471.495 37.8708 470.632 36.6151C469.698 35.2497 468.991 33.7424 468.538 32.1516C468.009 30.2904 467.753 28.3623 467.778 26.4275C467.763 24.6457 467.999 22.8707 468.479 21.1547C468.887 19.6559 469.55 18.2388 470.44 16.9659C471.242 15.8216 472.302 14.8823 473.534 14.2241C474.791 13.5658 476.191 13.2288 477.609 13.2431C479.683 13.1841 481.719 13.8022 483.41 15.004C485.077 16.2731 486.259 18.0751 486.759 20.11C486.837 19.1305 487.072 18.1699 487.455 17.2651C487.853 16.325 488.443 15.4782 489.186 14.7783C490.013 14.0137 490.98 13.4173 492.035 13.0224C493.329 12.5449 494.701 12.3168 496.08 12.3504C497.825 12.3175 499.554 12.6903 501.13 13.4393C502.576 14.1447 503.837 15.1776 504.813 16.4558C505.84 17.8193 506.606 19.3608 507.073 21.0027C507.606 22.835 507.871 24.7351 507.858 26.6433C507.879 28.6698 507.615 30.6892 507.073 32.6421C506.606 34.3351 505.882 35.9463 504.926 37.4195C504.04 38.7643 502.926 39.9444 501.635 40.9069C500.344 41.8599 498.9 42.5864 497.365 43.0552L495.403 38.5329C496.421 38.0447 497.393 37.4652 498.306 36.8014C499.249 36.1202 500.077 35.2922 500.758 34.349C501.5 33.309 502.074 32.1586 502.459 30.9401C502.918 29.439 503.135 27.8743 503.102 26.3049C503.102 23.5156 502.497 21.3117 501.287 19.6931C500.078 18.0744 498.357 17.257 496.124 17.2406C495.04 17.2035 493.967 17.4738 493.03 18.0205C492.178 18.5542 491.484 19.306 491.02 20.1983C490.485 21.2197 490.127 22.3242 489.961 23.465C489.748 24.8031 489.644 26.1565 489.652 27.5115V31.8818H485.018V28.4484C485.018 25.2111 484.405 22.69 483.179 20.885C481.958 19.0701 480.419 18.148 478.565 18.148C476.555 18.148 475.048 18.9099 474.044 20.4337C473.041 21.9575 472.539 24.0241 472.539 26.6335C472.51 28.0791 472.714 29.5199 473.142 30.9008C473.511 32.0478 474.057 33.1301 474.76 34.1086C475.397 34.9888 476.17 35.762 477.05 36.3992C477.858 36.9875 478.74 37.4658 479.673 37.8217L477.776 42.0056Z" fill="black"/>
<path d="M286.737 210.588C286.737 210.588 313.754 221.643 337.943 203.956C337.943 203.956 315.387 155.996 311.087 150.846C306.787 145.696 286.737 210.588 286.737 210.588Z" fill="white"/>
<path d="M362.062 207.419C362.062 207.419 384.436 216.577 404.466 201.931C404.466 201.931 385.78 162.201 382.225 157.943C378.67 153.686 362.062 207.419 362.062 207.419Z" fill="white"/>
<path d="M315.971 205.948C315.971 205.948 338.345 215.106 358.375 200.46C358.375 200.46 339.688 160.73 336.133 156.472C332.578 152.215 315.971 205.948 315.971 205.948Z" fill="white"/>
<path d="M339.507 219.682C339.507 219.682 361.881 228.839 381.911 214.193C381.911 214.193 363.224 174.463 359.669 170.206C356.114 165.948 339.507 219.682 339.507 219.682Z" fill="white"/>
<path d="M336.859 176.783C336.859 176.783 331.029 182.287 329.313 194.308C327.597 206.33 324.164 233.631 324.164 233.631H367.054C367.054 233.631 365.009 177.445 336.859 176.783Z" fill="#93FF43"/>
<path d="M402.588 179.657C402.588 179.657 406.682 176.307 408.472 176.842C410.262 177.377 407.08 180.496 407.08 180.496C407.08 180.496 413.174 177.553 414.253 179.922C415.332 182.291 407.031 187.976 407.031 187.976L402.588 179.657Z" fill="#003E14"/>
<path d="M339.546 176.783C346.94 175.773 355.237 177.053 367.068 182.473C371.405 184.508 375.874 186.247 380.445 187.677L402.176 177.76L409.438 187.569C409.438 187.569 385.02 209.195 354.825 201.303L339.546 176.783Z" fill="#93FF43"/>
<path d="M282.795 190.576C282.795 190.576 277.744 189.016 276.298 190.179C274.851 191.341 278.97 193.038 278.97 193.038C278.97 193.038 272.213 192.621 272.106 195.216C271.998 197.811 281.829 199.949 281.829 199.949L282.795 190.576Z" fill="#003E14"/>
<path d="M339.546 176.783C332.5 177.082 328.175 178.873 320.629 185.509C313.083 192.145 309.891 194.431 309.891 194.431L282.211 189.624L279.926 201.754C279.926 201.754 306.689 215.709 330.705 204.27C354.722 192.832 339.546 176.783 339.546 176.783Z" fill="#93FF43"/>
<path d="M346.82 172.942C348.857 168.837 347.927 164.227 344.742 162.645C341.557 161.064 337.324 163.11 335.287 167.215C333.249 171.321 334.18 175.931 337.365 177.512C340.549 179.094 344.783 177.048 346.82 172.942Z" fill="#FBDDC9"/>
<path d="M343.616 160.568C343.616 160.568 341.267 152.901 337.663 155.305C334.059 157.708 335.03 163.369 341.066 165.605C347.102 167.842 348.166 166.635 348.166 166.635C348.166 166.635 350.245 162.907 343.616 160.568Z" fill="#191919"/>
<path d="M344.954 164.742C344.954 164.742 342.606 172.325 346.612 173.384C346.612 173.384 351.677 166.807 347.2 162.593L344.954 164.742Z" fill="#191919"/>
<path d="M345.626 171.182C342.508 170.927 331.578 170.755 329.69 172.555C327.803 174.355 327.974 179.334 329.69 179.589C331.406 179.844 343.228 181.811 352.501 177.396C352.501 177.391 351.628 171.672 345.626 171.182Z" fill="#003E14"/>
<path d="M340.693 179.711C346.087 181.914 342.297 194.245 355.09 194.814C367.882 195.383 373.232 199.532 375.816 207.473C378.4 215.414 384.377 218.897 391.07 220.628L395.974 211.579C395.974 211.579 386.755 210.554 384.657 202.181C382.558 193.808 378.537 189.531 368.995 188.506C359.454 187.481 353.898 187.648 353.82 181.149C353.741 174.65 347.259 173.634 347.259 173.634L340.693 179.711Z" fill="#003E14"/>
<path d="M354.29 169.887C358.504 169.887 361.92 166.47 361.92 162.255C361.92 158.04 358.504 154.623 354.29 154.623C350.077 154.623 346.661 158.04 346.661 162.255C346.661 166.47 350.077 169.887 354.29 169.887Z" fill="#191919"/>
</g>
<defs>
<clipPath id="clip0_27_1636">
<rect width="508" height="495" fill="white"/>
</clipPath>
</defs>
</svg>
