<svg width="957" height="292" viewBox="0 0 957 292" fill="none" xmlns="http://www.w3.org/2000/svg">
<g clip-path="url(#clip0_27_1560)">
<path d="M355.784 186.03C349.178 186.03 342.196 184.846 336.885 181.015C336.247 180.556 335.635 180.061 335.054 179.531C327.861 182.596 319.948 183.562 312.229 182.317C303.792 180.841 297.423 176.515 294.757 170.476L299.414 168.428C301.384 172.914 306.375 176.16 313.106 177.337C319.348 178.295 325.731 177.643 331.65 175.442C329.458 171.89 328.309 167.502 328.219 162.313C327.961 147.226 335.389 143.437 338.591 142.51C344.306 140.867 350.821 143.597 354.1 149.002C357.831 155.152 356.348 162.717 350.132 169.25C347.187 172.333 343.808 174.968 340.101 177.072C351.754 185.159 374.495 178.145 374.725 178.075L376.25 182.951C369.601 184.908 362.715 185.944 355.784 186.03ZM341.994 147.108C341.322 147.107 340.652 147.198 340.004 147.379C335.611 148.654 333.168 154.059 333.307 162.208C333.391 166.798 334.393 170.483 336.363 173.353C340.123 171.388 343.531 168.813 346.45 165.733C351.051 160.899 352.255 155.758 349.756 151.642C348.945 150.297 347.809 149.177 346.453 148.384C345.097 147.592 343.564 147.153 341.994 147.108Z" fill="black"/>
<path d="M355.784 186.03C349.178 186.03 342.196 184.846 336.885 181.015C336.247 180.556 335.635 180.061 335.054 179.531C327.861 182.596 319.948 183.562 312.229 182.317C303.792 180.841 297.423 176.515 294.757 170.476L299.414 168.428C301.384 172.914 306.375 176.16 313.106 177.337C319.348 178.295 325.731 177.643 331.65 175.442C329.458 171.89 328.309 167.502 328.219 162.313C327.961 147.226 335.389 143.437 338.591 142.51C344.306 140.867 350.821 143.597 354.1 149.002C357.831 155.152 356.348 162.717 350.132 169.25C347.187 172.333 343.808 174.968 340.101 177.072C351.754 185.159 374.495 178.145 374.725 178.075L376.25 182.951C369.601 184.908 362.715 185.944 355.784 186.03ZM341.994 147.108C341.322 147.107 340.652 147.198 340.004 147.379C335.611 148.654 333.168 154.059 333.307 162.208C333.391 166.798 334.393 170.483 336.363 173.353C340.123 171.388 343.531 168.813 346.45 165.733C351.051 160.899 352.255 155.758 349.756 151.642C348.945 150.297 347.809 149.177 346.453 148.384C345.097 147.592 343.564 147.153 341.994 147.108Z" fill="black"/>
<path d="M682.785 180.032C677.142 176.707 672.206 172.305 668.257 167.077L671.383 164.639C696.909 197.376 730.955 172.357 732.389 171.277L733.21 170.657L734.192 170.978C735.939 171.542 777.162 184.212 798.63 135.831L802.25 137.44C781.179 184.943 740.763 176.78 733.955 175.052C729.27 178.201 705.38 192.939 682.785 180.032Z" fill="black"/>
<path d="M545.987 220.8C540.661 222.804 535.083 224.058 529.413 224.527C494.726 227.278 472.096 197.773 471.149 196.519L476.572 193.482C476.788 193.768 498.673 222.27 530.109 219.762C546.231 218.481 562.394 209.196 578.14 192.173L582.811 194.409C570.88 207.281 558.545 216.106 545.987 220.8Z" fill="black"/>
<path d="M97.2802 71.5894L142.875 178.57L164.6 169.299L189.409 227.515L161.83 239.286L148.458 207.908L52.5069 248.857L65.879 280.235L38.2856 292L13.4835 233.791L18.398 231.701C25.7024 228.581 29.9695 223.937 31.1993 217.77C32.2388 211.822 31.9464 205.024 30.3222 197.376C28.8604 191.149 24.5677 178.198 17.4443 158.523C10.3209 138.849 4.5061 123.711 0 113.11L97.2802 71.5894ZM58.2985 186.517C61.1525 198.126 61.5748 207.327 59.5654 214.121L115.476 190.257L80.8452 108.986L38.383 127.096C41.2556 133.922 44.9357 143.975 49.4232 157.256C53.9107 170.536 56.8715 180.29 58.3054 186.517H58.2985Z" fill="black"/>
<path d="M309.807 50.4497V77.3707H248.195V109.216H305.7V136.137H248.195V169.013H309.807V195.927H218.423V50.4497H309.807Z" fill="black"/>
<path d="M477.212 160.202L499.648 107.008L527.269 118.668L470.745 252.702L443.124 241L465.956 186.858L406.551 161.783L383.712 215.925L356.279 204.341L412.788 70.3496L440.221 81.9329L417.807 135.127L477.212 160.202Z" fill="black"/>
<path d="M596.614 132.877H623.31C640.29 132.877 653.365 136.824 662.535 144.718C671.705 152.612 676.293 164.221 676.297 179.545C676.297 195.161 671.573 206.907 662.125 214.783C652.676 222.658 639.327 226.605 622.078 226.624H566.842V81.0972H596.614V132.877ZM596.614 199.863H620.024C627.695 199.863 633.754 198.186 638.2 194.834C642.645 191.481 644.871 186.438 644.875 179.705C644.875 166.703 636.522 160.202 619.816 160.202H596.614V199.863Z" fill="black"/>
<path d="M887.828 92.6387L917.545 180.095L881.557 169.278L862.629 110.17L814.682 149.176L779.877 138.728L852.271 83.8972L823.648 0L860.033 10.9286L877.31 66.9715L922.773 29.7837L957 40.0645L887.828 92.6387Z" fill="white"/>
<path d="M221.618 204.509C218.77 207.532 215.376 209.987 211.615 211.746C188.059 222.723 156.88 203.945 155.565 203.144L157.931 199.271C158.231 199.452 188.365 217.583 209.714 207.629C220.657 202.524 227.597 190.78 230.333 172.726L234.816 173.423C232.707 187.089 228.321 197.495 221.618 204.509Z" fill="black"/>
<path d="M221.618 204.509C218.77 207.532 215.376 209.987 211.615 211.746C188.059 222.723 156.88 203.945 155.565 203.144L157.931 199.271C158.231 199.452 188.365 217.583 209.714 207.629C220.657 202.524 227.597 190.78 230.333 172.726L234.816 173.423C232.707 187.089 228.321 197.495 221.618 204.509Z" fill="black"/>
</g>
<defs>
<clipPath id="clip0_27_1560">
<rect width="957" height="292" fill="white"/>
</clipPath>
</defs>
</svg>
