<svg width="135" height="267" viewBox="0 0 135 267" fill="none" xmlns="http://www.w3.org/2000/svg">
<path d="M134.969 263.283H0.789082L67.8824 25.4863L134.969 263.283Z" fill="#93FF43"/>
<path d="M58.0066 141.381C60.7933 141.393 63.5567 140.875 66.1502 139.855C82.3643 133.503 87.6606 109.756 87.873 108.727L84.9063 108.064C84.8598 108.296 79.7361 131.253 65.0617 137.008C57.542 139.961 48.655 137.904 38.6465 130.908L36.9076 133.39C44.4937 138.72 51.5687 141.381 58.0066 141.381Z" fill="#191919"/>
<path d="M100.981 210.366C106.005 210.301 110.967 209.245 115.582 207.26L114.428 204.453C84.9992 216.532 71.8182 186.958 71.2872 185.697L70.9753 184.973L70.1987 184.807C68.8249 184.522 36.5492 177.307 40.631 136.941L37.6111 136.636C33.6289 176.259 63.6215 186.181 68.805 187.588C70.7164 191.491 81.0303 210.366 100.981 210.366Z" fill="#191919"/>
<path class="boll-1" d="M86.393 121.265C79.2929 121.265 73.5371 115.509 73.5371 108.409C73.5371 101.309 79.2929 95.553 86.393 95.553C93.4931 95.553 99.2488 101.309 99.2488 108.409C99.2488 115.509 93.4931 121.265 86.393 121.265Z" fill="#FFEEB6"/>
<path class="boll-3" d="M60.7767 195.388C55.7561 190.368 55.7561 182.228 60.7767 177.207C65.7972 172.187 73.9371 172.187 78.9576 177.207C83.9781 182.228 83.9781 190.368 78.9576 195.388C73.9371 200.409 65.7972 200.409 60.7767 195.388Z" fill="#FFEEB6"/>
<path class="boll-2" d="M26.5876 139.714C24.9567 132.804 29.2363 125.88 36.1466 124.249C43.0568 122.618 49.9808 126.898 51.6118 133.808C53.2427 140.718 48.963 147.642 42.0528 149.273C35.1426 150.904 28.2186 146.625 26.5876 139.714Z" fill="#5FAE2D"/>
<path d="M65.1944 1.66609L61.5507 9.63048C61.3316 10.1079 60.9892 10.5182 60.5587 10.8192C60.1282 11.1202 59.6253 11.301 59.1016 11.3428L50.2147 12.0596C49.6259 12.1059 49.0646 12.328 48.6036 12.6972C48.1426 13.0664 47.8032 13.5656 47.6293 14.13C47.4555 14.6944 47.4553 15.2981 47.6287 15.8627C47.8021 16.4272 48.1412 16.9267 48.6019 17.2962L55.0066 22.4531C55.4445 22.807 55.7721 23.2787 55.9508 23.8125C56.1295 24.3464 56.152 24.9202 56.0155 25.4663L54.0244 33.3511C53.8759 33.9118 53.8962 34.5038 54.0827 35.053C54.2692 35.6022 54.6136 36.0841 55.0728 36.4384C55.532 36.7927 56.0855 37.0037 56.6641 37.0448C57.2426 37.0859 57.8204 36.9554 58.3251 36.6696L66.4156 32.1564C66.855 31.9117 67.3496 31.7833 67.8525 31.7833C68.3554 31.7833 68.85 31.9117 69.2894 32.1564L77.3866 36.6696C77.8911 36.9533 78.4681 37.0821 79.0454 37.04C79.6227 36.9979 80.1748 36.7866 80.6328 36.4327C81.0908 36.0787 81.4345 35.5977 81.6208 35.0497C81.8072 34.5017 81.828 33.9109 81.6807 33.3511L79.6896 25.4663C79.5538 24.9195 79.5773 24.3453 79.7572 23.8114C79.9371 23.2775 80.266 22.8062 80.7051 22.4531L87.1031 17.2962C87.5638 16.9267 87.9029 16.4272 88.0763 15.8627C88.2498 15.2981 88.2496 14.6944 88.0757 14.13C87.9019 13.5656 87.5624 13.0664 87.1014 12.6972C86.6404 12.328 86.0791 12.1059 85.4903 12.0596L76.6034 11.3428C76.0798 11.301 75.5768 11.1202 75.1463 10.8192C74.7158 10.5182 74.3734 10.1079 74.1543 9.63048L70.5106 1.66609C70.2688 1.16675 69.8912 0.745608 69.4211 0.450946C68.951 0.156283 68.4073 0 67.8525 0C67.2977 0 66.7541 0.156283 66.284 0.450946C65.8139 0.745608 65.4362 1.16675 65.1944 1.66609V1.66609Z" fill="#FFEEB6"/>
<path d="M81.3621 60.9146H54.4027L67.8824 25.4863L81.3621 60.9146Z" fill="#FFEEB6"/>
<path d="M113.551 203.148C113.899 201.689 114.253 200.204 114.524 198.672L111.552 198.086C107.004 221.025 96.975 236.625 81.7268 244.475C54.3108 258.592 18.7922 242.853 18.4347 242.692L17.1891 245.452C18.6903 246.138 54.3709 261.97 83.1063 247.186C98.2105 239.424 108.426 224.613 113.551 203.148Z" fill="#191919"/>
<path class="boll-4" d="M114.992 218.716C107.892 218.716 102.136 212.96 102.136 205.86C102.136 198.76 107.892 193.004 114.992 193.004C122.092 193.004 127.848 198.76 127.848 205.86C127.848 212.96 122.092 218.716 114.992 218.716Z" fill="#5FAE2D"/>
<path class="boll-5" d="M15.2522 250.73C8.15214 250.73 2.39639 244.974 2.39639 237.874C2.39639 230.774 8.15214 225.018 15.2522 225.018C22.3523 225.018 28.1081 230.774 28.1081 237.874C28.1081 244.974 22.3523 250.73 15.2522 250.73Z" fill="#FFEEB6"/>
</svg>
